<svg id="圖層_1" data-name="圖層 1" xmlns="http://www.w3.org/2000/svg" viewBox="0 0 112.35 26.61"><defs><style>.cls-1{fill:#fff;}.cls-2{fill:#d60c18;}</style></defs><path class="cls-1" d="M2.68,22.69v.8H2.6a1.49,1.49,0,0,0-.15-.4.63.63,0,0,0-.24-.19.71.71,0,0,0-.29,0H1.7v2.28a.66.66,0,0,0,0,.28l.1.1a.34.34,0,0,0,.2,0h.09v.08H.58v-.08h.1a.34.34,0,0,0,.2,0L1,25.45a.61.61,0,0,0,0-.27V22.86H.75A.66.66,0,0,0,.32,23a.84.84,0,0,0-.24.5H0v-.8Z"/><path class="cls-1" d="M3.78,25.34a1.07,1.07,0,0,1-.67.33.38.38,0,0,1-.4-.36v0a.62.62,0,0,1,.2-.42,3.74,3.74,0,0,1,.87-.49v-.21a1.41,1.41,0,0,0,0-.29l-.1-.1a.27.27,0,0,0-.15-.05.34.34,0,0,0-.24.07l0,.09L3.3,24a.24.24,0,0,1,0,.36.32.32,0,0,1-.21.08.4.4,0,0,1-.23-.08.25.25,0,0,1-.09-.2.47.47,0,0,1,.12-.3.87.87,0,0,1,.35-.22,1.43,1.43,0,0,1,.46-.07.76.76,0,0,1,.46.12.64.64,0,0,1,.22.27,1.48,1.48,0,0,1,0,.42v.79a.49.49,0,0,0,0,.17v.06h.11a.2.2,0,0,0,.12-.08l.06.05a1,1,0,0,1-.22.24.52.52,0,0,1-.27.07.34.34,0,0,1-.39-.29v0m0-.16V24.5a1.55,1.55,0,0,0-.39.33.41.41,0,0,0-.08.24.24.24,0,0,0,.07.18.2.2,0,0,0,.15.06.41.41,0,0,0,.25-.13"/><path class="cls-1" d="M5.76,23.61v1.61a.45.45,0,0,0,0,.28.26.26,0,0,0,.19.06v.08H4.85v-.08a.29.29,0,0,0,.2-.07.62.62,0,0,0,0-.27V24a.62.62,0,0,0,0-.27.29.29,0,0,0-.2-.07v-.08Zm-.31-1a.35.35,0,0,1,.24.1.34.34,0,1,1-.48.48.36.36,0,0,1,0-.48.37.37,0,0,1,.24-.1"/><path class="cls-1" d="M8.29,25.7l-.56-1.49L7.19,25.7H7.08l-.59-1.47a1.93,1.93,0,0,0-.2-.44.27.27,0,0,0-.17-.1v-.08h1v.08a.17.17,0,0,0-.14,0v.07a.81.81,0,0,0,.07.22l.29.79L7.63,24v-.05a.45.45,0,0,0-.12-.21.2.2,0,0,0-.15-.06v-.08h1v.08H8.2v.08a.83.83,0,0,0,.06.21l.29.79L8.81,24a.83.83,0,0,0,.06-.21.13.13,0,0,0,0-.12.22.22,0,0,0-.16,0V23.6h.61v.08a.24.24,0,0,0-.16.07,1,1,0,0,0-.15.33l-.57,1.61Z"/><path class="cls-1" d="M10.69,25.34a1.15,1.15,0,0,1-.67.33.44.44,0,0,1-.29-.11.4.4,0,0,1-.12-.29.62.62,0,0,1,.2-.42,4.21,4.21,0,0,1,.88-.49v-.21a.71.71,0,0,0,0-.29l-.09-.1a.3.3,0,0,0-.16-.05.39.39,0,0,0-.23.07l-.06.09.06.11a.25.25,0,0,1,.08.18.23.23,0,0,1-.08.18.3.3,0,0,1-.2.08.4.4,0,0,1-.23-.08.26.26,0,0,1-.1-.2.48.48,0,0,1,.13-.3.77.77,0,0,1,.34-.22,1.49,1.49,0,0,1,.47-.07.71.71,0,0,1,.45.12.53.53,0,0,1,.22.27,1.48,1.48,0,0,1,0,.42v1h0a.13.13,0,0,0,.11-.08l.07.05a.88.88,0,0,1-.23.24.48.48,0,0,1-.26.07.38.38,0,0,1-.27-.08.33.33,0,0,1-.12-.25m0-.16V24.5a1.6,1.6,0,0,0-.4.33.41.41,0,0,0-.08.24.24.24,0,0,0,.07.18.2.2,0,0,0,.15.06.43.43,0,0,0,.26-.13"/><path class="cls-1" d="M12.7,23.61v.26a1.42,1.42,0,0,1,.3-.25.67.67,0,0,1,.31-.07.42.42,0,0,1,.32.11.5.5,0,0,1,.18.27,1.93,1.93,0,0,1,0,.48v.79a.71.71,0,0,0,0,.29.4.4,0,0,0,.17.07v.08H13v-.08a.22.22,0,0,0,.17-.09.61.61,0,0,0,0-.27v-.91a.81.81,0,0,0,0-.31l-.06-.1H13c-.12,0-.24.09-.34.27V25.2a.71.71,0,0,0,0,.29.24.24,0,0,0,.16.07v.08h-1v-.08a.25.25,0,0,0,.18-.08.45.45,0,0,0,0-.28V24.05a.71.71,0,0,0,0-.29.29.29,0,0,0-.18-.07v-.08Z"/><path class="cls-1" d="M14.61,23.9l-.12-.65a2.16,2.16,0,0,1,0-.36.25.25,0,0,1,.06-.2.24.24,0,0,1,.32,0,.27.27,0,0,1,.06.17v.39l-.12.65Z"/><path class="cls-1" d="M16.58,23.55v.7h-.07a1.21,1.21,0,0,0-.27-.43.44.44,0,0,0-.29-.11.2.2,0,0,0-.15.06.2.2,0,0,0-.06.14V24a2.31,2.31,0,0,0,.39.31,1.49,1.49,0,0,1,.42.37.56.56,0,0,1,.1.33.81.81,0,0,1-.08.34.72.72,0,0,1-.24.25.81.81,0,0,1-.34.08,1.3,1.3,0,0,1-.39-.09h-.09s-.09,0-.12.11h0V25h.07a1.08,1.08,0,0,0,.27.43.58.58,0,0,0,.33.14.27.27,0,0,0,.17-.06.23.23,0,0,0,.06-.16.28.28,0,0,0-.06-.18,2.09,2.09,0,0,0-.29-.23,1.61,1.61,0,0,1-.43-.35.59.59,0,0,1-.15-.4.67.67,0,0,1,.16-.42.59.59,0,0,1,.47-.19.61.61,0,0,1,.32.08h.16l.08-.09Z"/><path class="cls-1" d="M20.65,24.61l-.11,1H17.92v-.08H18a.34.34,0,0,0,.2,0l.09-.11a.62.62,0,0,0,0-.27V23.2a.71.71,0,0,0,0-.29l-.1-.09a.32.32,0,0,0-.19-.05h-.1v-.08h1.57v.08h-.13a.46.46,0,0,0-.2.05.22.22,0,0,0-.09.1.66.66,0,0,0,0,.28v1.88a.66.66,0,0,0,0,.28.17.17,0,0,0,.1.1h.51a.75.75,0,0,0,.39-.09.62.62,0,0,0,.27-.26,2,2,0,0,0,.22-.52Z"/><path class="cls-1" d="M22.76,24.55H21.64a1,1,0,0,0,.22.64.45.45,0,0,0,.36.18.37.37,0,0,0,.27-.07,1,1,0,0,0,.23-.26l.08.05a1.21,1.21,0,0,1-.37.47.7.7,0,0,1-.46.14.76.76,0,0,1-.69-.35,1.21,1.21,0,0,1-.18-.69,1.15,1.15,0,0,1,.27-.81.85.85,0,0,1,.65-.3.67.67,0,0,1,.53.25,1.27,1.27,0,0,1,.25.75m-.54-.14a1.93,1.93,0,0,0,0-.48.32.32,0,0,0-.12-.2.13.13,0,0,0-.12,0,.23.23,0,0,0-.18.11.89.89,0,0,0-.13.53v.08Z"/><path class="cls-1" d="M24.21,25.34a1.07,1.07,0,0,1-.67.33.44.44,0,0,1-.29-.11.39.39,0,0,1-.11-.29.53.53,0,0,1,.2-.42,3.74,3.74,0,0,1,.87-.49v-.21a.71.71,0,0,0,0-.29l-.09-.1a.3.3,0,0,0-.16-.05.39.39,0,0,0-.23.07l-.06.09.06.11a.26.26,0,0,1,.09.18.25.25,0,0,1-.08.18.32.32,0,0,1-.21.08.4.4,0,0,1-.23-.08.25.25,0,0,1-.09-.2.47.47,0,0,1,.12-.3.87.87,0,0,1,.35-.22,1.43,1.43,0,0,1,.46-.07.76.76,0,0,1,.46.12.51.51,0,0,1,.21.27,1.48,1.48,0,0,1,0,.42v.79a.49.49,0,0,0,0,.17v.06h.05A.15.15,0,0,0,25,25.3l.07.05a.76.76,0,0,1-.23.24.48.48,0,0,1-.26.07.38.38,0,0,1-.27-.08.33.33,0,0,1-.12-.25m0-.16V24.5a1.37,1.37,0,0,0-.39.33.36.36,0,0,0-.09.24.29.29,0,0,0,.07.18.23.23,0,0,0,.16.06.5.5,0,0,0,.25-.13"/><path class="cls-1" d="M27.36,22.69v2.59l.07.11a.25.25,0,0,0,.17,0v.08l-.86.16v-.32a1.11,1.11,0,0,1-.27.26.67.67,0,0,1-.28.06.69.69,0,0,1-.61-.35,1.21,1.21,0,0,1-.18-.69,1.35,1.35,0,0,1,.11-.59,1.07,1.07,0,0,1,.31-.39.7.7,0,0,1,.42-.13.75.75,0,0,1,.26.05.91.91,0,0,1,.24.2v-.61a.66.66,0,0,0,0-.28l-.08-.1h-.19v-.09Zm-.61,1.38a.47.47,0,0,0-.39-.31.15.15,0,0,0-.13,0,.43.43,0,0,0-.14.23,2.29,2.29,0,0,0-.05.52,1.85,1.85,0,0,0,.06.57.56.56,0,0,0,.15.27.17.17,0,0,0,.14,0q.2,0,.36-.3Z"/><path class="cls-1" d="M28.73,23.61v1.61a.45.45,0,0,0,0,.28.31.31,0,0,0,.19.06v.08h-1.1v-.08a.29.29,0,0,0,.2-.07.5.5,0,0,0,.05-.27V24a.5.5,0,0,0-.05-.27.29.29,0,0,0-.2-.07v-.08Zm-.31-1a.35.35,0,0,1,.24.1.34.34,0,0,1,0,.48.35.35,0,0,1-.24.1.34.34,0,0,1,0-.68"/><path class="cls-1" d="M30.08,23.61v.26a1.42,1.42,0,0,1,.3-.25.67.67,0,0,1,.31-.07.42.42,0,0,1,.32.11.5.5,0,0,1,.18.27,1.93,1.93,0,0,1,0,.48v.79a.71.71,0,0,0,0,.29.4.4,0,0,0,.17.07v.08h-1v-.08a.22.22,0,0,0,.17-.09.62.62,0,0,0,0-.27v-.91a.81.81,0,0,0,0-.31l-.06-.1h-.1c-.13,0-.25.09-.35.27V25.2a.71.71,0,0,0,0,.29.24.24,0,0,0,.16.07v.08h-1v-.08a.25.25,0,0,0,.18-.08.45.45,0,0,0,0-.28V24.05a.71.71,0,0,0,0-.29.29.29,0,0,0-.18-.07v-.08Z"/><path class="cls-1" d="M33.1,23.63h.68v.24H33.4a.56.56,0,0,1,.14.2.5.5,0,0,1,.06.24.58.58,0,0,1-.13.38.72.72,0,0,1-.32.25,1.18,1.18,0,0,1-.37.09h-.29a.27.27,0,0,0-.17.06.23.23,0,0,0-.06.16.14.14,0,0,0,.06.12.25.25,0,0,0,.19.05h.38a1.37,1.37,0,0,1,.63.1.45.45,0,0,1,.24.43.57.57,0,0,1-.11.33.76.76,0,0,1-.3.23,1.8,1.8,0,0,1-.65.1,2.07,2.07,0,0,1-.5-.05.86.86,0,0,1-.32-.15.26.26,0,0,1-.1-.2.33.33,0,0,1,.11-.21.72.72,0,0,1,.28-.13.43.43,0,0,1-.29-.39.45.45,0,0,1,.12-.29.88.88,0,0,1,.36-.24,1.07,1.07,0,0,1-.42-.28.74.74,0,0,1-.13-.41.63.63,0,0,1,.25-.51.88.88,0,0,1,.62-.22,1.2,1.2,0,0,1,.42.08m-.5,2.31a.76.76,0,0,0-.3,0,.2.2,0,0,0-.12.18.22.22,0,0,0,.13.2.8.8,0,0,0,.48.09,1.09,1.09,0,0,0,.47-.08.26.26,0,0,0,.18-.22V26a.22.22,0,0,0-.17-.09,3.31,3.31,0,0,0-.63,0m.12-2.26a.23.23,0,0,0-.21.13,1,1,0,0,0-.09.53.83.83,0,0,0,.09.44.24.24,0,0,0,.2.12.25.25,0,0,0,.22-.12.81.81,0,0,0,.09-.46,1,1,0,0,0-.1-.53.23.23,0,0,0-.2-.11"/><path class="cls-1" d="M37.17,24.64,38,22.69h1.2v.08h-.1a.38.38,0,0,0-.21.05l-.09.1a1.22,1.22,0,0,0,0,.27v1.95a1.31,1.31,0,0,0,0,.28.24.24,0,0,0,.1.1.34.34,0,0,0,.2,0h.1v.08H37.64v-.08h.09a.38.38,0,0,0,.21,0l.09-.11a1.22,1.22,0,0,0,0-.27V23L36.9,25.69h0L35.72,23v2.08a1.22,1.22,0,0,0,0,.27.3.3,0,0,0,.12.17.53.53,0,0,0,.3.07v.08h-1v-.08h0a.54.54,0,0,0,.18,0,.3.3,0,0,0,.13-.09.46.46,0,0,0,.07-.16V23.19a.66.66,0,0,0,0-.28.22.22,0,0,0-.1-.09.35.35,0,0,0-.2-.05h-.09v-.08h1.21Z"/><path class="cls-1" d="M40.6,25.34a1,1,0,0,1-.66.33.38.38,0,0,1-.41-.37v0a.62.62,0,0,1,.2-.42,4.14,4.14,0,0,1,.87-.49v-.21a1.41,1.41,0,0,0,0-.29l-.1-.1a.27.27,0,0,0-.15-.05.33.33,0,0,0-.23.07l-.06.09.06.11a.25.25,0,0,1,.08.18.23.23,0,0,1-.08.18.3.3,0,0,1-.2.08.38.38,0,0,1-.23-.08.26.26,0,0,1-.1-.2.43.43,0,0,1,.13-.3.77.77,0,0,1,.34-.22,1.43,1.43,0,0,1,.46-.07.76.76,0,0,1,.46.12.53.53,0,0,1,.22.27,1.48,1.48,0,0,1,0,.42v.79a.49.49,0,0,0,0,.17v.06h0a.2.2,0,0,0,.12-.08l.06.05a.64.64,0,0,1-.22.24.48.48,0,0,1-.26.07.46.46,0,0,1-.28-.08.42.42,0,0,1-.12-.25m0-.16V24.5a1.55,1.55,0,0,0-.39.33.41.41,0,0,0-.08.24.24.24,0,0,0,.07.18.2.2,0,0,0,.15.06.41.41,0,0,0,.25-.13"/><path class="cls-1" d="M43.09,23.63h.68v.24h-.38a.56.56,0,0,1,.14.2.5.5,0,0,1,.06.24.58.58,0,0,1-.13.38,1,1,0,0,1-.32.25,1.18,1.18,0,0,1-.37.09h-.28a.27.27,0,0,0-.17.06.23.23,0,0,0-.06.16.14.14,0,0,0,.06.12.25.25,0,0,0,.19.05h.38a1.37,1.37,0,0,1,.63.1.45.45,0,0,1,.24.43.57.57,0,0,1-.11.33.76.76,0,0,1-.3.23,1.8,1.8,0,0,1-.65.1,2.07,2.07,0,0,1-.5-.05.86.86,0,0,1-.32-.15.26.26,0,0,1-.1-.2.25.25,0,0,1,.08-.18.72.72,0,0,1,.28-.13.43.43,0,0,1-.29-.39.45.45,0,0,1,.12-.29.88.88,0,0,1,.36-.24,1.07,1.07,0,0,1-.42-.28.74.74,0,0,1-.13-.41.63.63,0,0,1,.25-.51.88.88,0,0,1,.62-.22,1.2,1.2,0,0,1,.42.08M42.56,26a.71.71,0,0,0-.29,0,.2.2,0,0,0-.12.18.22.22,0,0,0,.13.2.8.8,0,0,0,.48.09,1.09,1.09,0,0,0,.47-.08.26.26,0,0,0,.18-.22V26a.22.22,0,0,0-.17-.09,3.42,3.42,0,0,0-.64,0m.13-2.26a.23.23,0,0,0-.21.13,1,1,0,0,0-.09.53.83.83,0,0,0,.09.44.24.24,0,0,0,.2.12.25.25,0,0,0,.22-.12.81.81,0,0,0,.09-.46,1,1,0,0,0-.1-.53.23.23,0,0,0-.2-.11"/><path class="cls-1" d="M45.21,25.34a1.07,1.07,0,0,1-.67.33.38.38,0,0,1-.4-.36v0a.53.53,0,0,1,.2-.42,3.74,3.74,0,0,1,.87-.49v-.21a.71.71,0,0,0,0-.29l-.09-.1a.3.3,0,0,0-.16-.05.39.39,0,0,0-.23.07l-.06.09.06.11a.26.26,0,0,1,.09.18.25.25,0,0,1-.08.18.32.32,0,0,1-.21.08.4.4,0,0,1-.23-.08.25.25,0,0,1-.09-.2.47.47,0,0,1,.12-.3.87.87,0,0,1,.35-.22,1.43,1.43,0,0,1,.46-.07.76.76,0,0,1,.46.12.64.64,0,0,1,.22.27,1.48,1.48,0,0,1,0,.42v.79a.49.49,0,0,0,0,.17v.06h0a.2.2,0,0,0,.12-.08l.06.05a1,1,0,0,1-.22.24.52.52,0,0,1-.27.07.38.38,0,0,1-.27-.08.33.33,0,0,1-.12-.25m0-.16V24.5a1.37,1.37,0,0,0-.39.33.36.36,0,0,0-.09.24.25.25,0,0,0,.08.18.2.2,0,0,0,.15.06.5.5,0,0,0,.25-.13"/><path class="cls-1" d="M48.06,25.64H46.29v-.05l1.11-1.85h-.32a.81.81,0,0,0-.31,0,.28.28,0,0,0-.14.12,1.34,1.34,0,0,0-.12.3h-.08v-.59h1.71v.06L47,25.46h.14a1.24,1.24,0,0,0,.6-.12.77.77,0,0,0,.28-.43h.06Z"/><path class="cls-1" d="M49.24,23.61v1.61a.45.45,0,0,0,0,.28.31.31,0,0,0,.19.06v.08h-1.1v-.08a.29.29,0,0,0,.2-.07.62.62,0,0,0,0-.27V24a.62.62,0,0,0,0-.27.29.29,0,0,0-.2-.07v-.08Zm-.31-1a.35.35,0,0,1,.24.1.34.34,0,0,1,0,.48.37.37,0,0,1-.24.1.34.34,0,0,1,0-.68"/><path class="cls-1" d="M50.59,23.61v.26a1.42,1.42,0,0,1,.3-.25.67.67,0,0,1,.31-.07.42.42,0,0,1,.32.11.5.5,0,0,1,.18.27,1.93,1.93,0,0,1,0,.48v.79a.58.58,0,0,0,0,.29.4.4,0,0,0,.17.07v.08h-1v-.08a.22.22,0,0,0,.17-.09.62.62,0,0,0,0-.27v-.91a.81.81,0,0,0,0-.31l-.06-.1h-.11c-.12,0-.24.09-.34.27V25.2a.71.71,0,0,0,0,.29.24.24,0,0,0,.16.07v.08h-1v-.08a.25.25,0,0,0,.18-.08.45.45,0,0,0,0-.28V24.05a.71.71,0,0,0,0-.29.29.29,0,0,0-.18-.07v-.08Z"/><path class="cls-1" d="M54,24.55H52.91a1,1,0,0,0,.22.64.45.45,0,0,0,.36.18.39.39,0,0,0,.23-.07A1,1,0,0,0,54,25l.08.05a1.21,1.21,0,0,1-.37.47.7.7,0,0,1-.46.14.76.76,0,0,1-.69-.35,1.21,1.21,0,0,1-.18-.69,1.15,1.15,0,0,1,.27-.81.85.85,0,0,1,.65-.3.67.67,0,0,1,.53.25,1.13,1.13,0,0,1,.25.75m-.54-.14a1.93,1.93,0,0,0,0-.48.31.31,0,0,0-.11-.2.29.29,0,0,0-.13,0,.23.23,0,0,0-.18.11.89.89,0,0,0-.13.53v.08Z"/><rect class="cls-2" x="0.06" y="1.49" width="53.93" height="19.34"/><path class="cls-1" d="M13.7,3.78a.9.9,0,0,1-.32,1c-.8.39-1.65.65-2.42,1.08C9.49,6.11,8,6.64,6.55,7a1.49,1.49,0,0,1-1.49-.54c.08-.35-.42-.6-.06-.91a14,14,0,0,1,1.94-.22,4.5,4.5,0,0,1,2.5-.8c.15-.22.41-.19.58-.32.4-.32.94-.44,1.26-.85a2.06,2.06,0,0,1,1.64-.23c.27.19.66.29.78.65"/><path class="cls-1" d="M24.7,8.9a1.17,1.17,0,0,0,0-.9c0-.17.08-.3-.09-.38-.32-.23-.62.13-.94.18-.43.22-.74.75-1.25.88a5.21,5.21,0,0,1-1.45,1,3.17,3.17,0,0,1-1.9-.11c-.15-.25-.46-.12-.65-.28C18,9,17.36,9,17,8.49c-.2-.36-.79-.36-.68-.87a1.38,1.38,0,0,1,.75-.33,19.2,19.2,0,0,0,2.83-.35c.51-.13,1-.25,1.54-.42.19-.21.59-.08.74-.38a4.85,4.85,0,0,1,1-.16c.28-.23.69-.1,1-.36.55,0,1-.37,1.55-.33.42-.42,1.1-.25,1.61-.48.75-.23,1.57-.8,2.41-.35h.35c.58.15,1.33.15,1.61.74a2.14,2.14,0,0,1-.39,1.06,1.94,1.94,0,0,1-2,.07,2.6,2.6,0,0,0-2.18,0c-.19.22-.51.22-.62.53a3.38,3.38,0,0,0,.07,1c.25.54-.08,1.08.16,1.61A15.32,15.32,0,0,1,27,12a24.08,24.08,0,0,0,.29,3.7c.08.42.24.87.29,1.36.26.29,0,.68.19,1-.28.71,0,1.73-.83,2.09a1.72,1.72,0,0,1-1.75.2c-.36-.12-.45-.51-.7-.71,0-.47-.33-.91-.16-1.45a64,64,0,0,0,.38-9.08"/><path class="cls-1" d="M9.7,7.43a3.49,3.49,0,0,1,.55,1c.28.31.6,0,.9-.07a2.52,2.52,0,0,1,2-1.06c.35.14.79.12,1,.49a.79.79,0,0,1,0,.73c-.3.63-1.07.86-1.61,1.27-.43.22-1,.38-1.22.87a2.68,2.68,0,0,0,1.09,1.82c.74.77,1.42,1.93,2.41,2.39.54.31,1,.92,1.66,1.1.14.15.42.2.57.37.31,0,.44.49.81.37a5.38,5.38,0,0,0,2,1c.19.13.45.24.55.42s.35.3.49.48-.11.37-.17.55c-.37.36-1,.21-1.38.46a19,19,0,0,1-4.13.12l-1.47-1.13c-.94-1.15-1.66-2.43-2.58-3.6-.11-.26-.5-.37-.62-.68-.45-.3-.62-.85-1.22-.9A2,2,0,0,0,9,14.58c-.15.33-.09.8-.28,1.13s-.12.56-.33.78c0,.27-.21.35-.22.62A7.75,7.75,0,0,1,6,19.74c-.75.14-1.43.71-2.23.26a1.28,1.28,0,0,1-1.09-.8c.11-.24-.2-.32-.2-.52s-.29-.63.14-.84A.55.55,0,0,1,3,17.43a1.13,1.13,0,0,1,1.11.25.73.73,0,0,0,.34-.13c0-.2.34-.23.33-.44a2.68,2.68,0,0,0,.73-1.19A2,2,0,0,0,5.86,14a3.8,3.8,0,0,1-1.54,0c-.35-.26-.86-.39-1-.78a1.68,1.68,0,0,1-.49-.94c.15-.4.71-.28,1-.35a5.05,5.05,0,0,0,.94-.29c.75-.15,1.19-.82,2-.93.45-.28,1.08-.68,1-1.33s.13-1,.06-1.54a1,1,0,0,1,.54-.55c.29-.08.61,0,.9-.09.11.17.33.09.46.2"/><path class="cls-1" d="M33.14,11.25c.62.67,1.29,1.49.87,2.48,0,.34-.52.22-.55.58a4.11,4.11,0,0,1-2-.12c0-.24-.18-.32-.38-.46a2.59,2.59,0,0,1-1-2.67c.78-.63,1.85-.05,2.74,0a.72.72,0,0,0,.39.19"/><path class="cls-1" d="M43.78,14.16c0,.05,0,.11-.1.13H42.52v1h1l.08.09v.1H42.42v1c0,.07.08.06.12.07h1l.08.09s0,.1-.06.11H42.5V17.8a.42.42,0,0,0,.27,0,4.18,4.18,0,0,1,1,0v.14h-3a.52.52,0,0,1-.43-.24,5.62,5.62,0,0,1,0-.92V14.71c-.16.14-.26.37-.46.48a.31.31,0,0,1-.19,0,.15.15,0,0,1,0-.16,5.36,5.36,0,0,0,.82-1.94c.08-.14.25-.14.4-.11a.25.25,0,0,1,.21.18v.12a4.15,4.15,0,0,0-.38.76H41.8a1.76,1.76,0,0,1,.31-.57c.12-.17.18-.48.45-.49a.44.44,0,0,1,.36.15.28.28,0,0,1-.11.28,5.5,5.5,0,0,0-.56.62h1.4"/><path class="cls-1" d="M44.77,14.21s.07-.11.14-.12H47.6c.11-.07.26,0,.4-.06h1.31c.11-.07,0-.23.07-.34s-.12-.59.18-.66.36,0,.44.14V14h1.68l.07.07c0,.06,0,.13-.06.14H50v1.12h1.38s.11.09.07.16l-.07.07H47.93s-.11-.07-.09-.15A.14.14,0,0,1,48,15.3h1.29c.15,0,0-.25.09-.35V14.3l-.06-.05H47.62a.25.25,0,0,1-.16.1H44.85"/><path class="cls-1" d="M38.73,13.1v.67l.06.05h1.06s0,.08,0,.14l-.11.07h-3l0,0c0-.05,0-.12.07-.13H38l.08-.08c.06-.25-.17-.72.23-.77.13,0,.3,0,.38.13"/><path class="cls-1" d="M47.35,13.27l.08.05a.13.13,0,0,1-.06.17h-2.2l-.1-.09,0-.13a3.39,3.39,0,0,1,.78,0h1.43"/><path class="cls-1" d="M38,14.16a.2.2,0,0,1,.08.23c0,.19-.35.37-.14.58a1.38,1.38,0,0,1,.38.54v.09a.19.19,0,0,1-.23.07c-.16-.13-.28-.3-.45-.43a.17.17,0,0,0-.12.11c-.19.22-.35.53-.61.64-.07,0-.14,0-.17-.11v-.09a8.76,8.76,0,0,0,.87-1.59.32.32,0,0,1,.41,0"/><path class="cls-1" d="M39.57,14.37c0,.2-.15.36-.23.54a3.87,3.87,0,0,0,.39.79v.14a.22.22,0,0,1-.22,0c-.15-.11-.27-.33-.42-.47-.18.1-.21.49-.5.34a.16.16,0,0,1-.06-.19A3.91,3.91,0,0,0,39,14.29a.32.32,0,0,1,.21-.13c.13,0,.29,0,.35.17"/><path class="cls-2" d="M41.88,14.4v1a4.51,4.51,0,0,1-.9,0h0v-1c0-.11.12-.05.18-.07h.73Z"/><path class="cls-1" d="M47.33,14.92l.16.08a.18.18,0,0,1-.1.14H45.2l-.11-.08a.17.17,0,0,1,.1-.18h2.14Z"/><path class="cls-1" d="M47.3,15.74l.1.09v.11a.18.18,0,0,1-.16.05H45.16a.14.14,0,0,1-.06-.17c0-.05.1-.05.16-.07h2"/><path class="cls-2" d="M41.86,15.68v1.08a6.76,6.76,0,0,1-.9,0h0v-1h.09a5.89,5.89,0,0,1,.84,0"/><path class="cls-1" d="M38.66,15.84c.16.17,0,.35.09.56h1.11s.1,0,.11.09a.15.15,0,0,1-.1.15h-1c-.07,0,0,.07,0,.11a3.86,3.86,0,0,0,1,.84.16.16,0,0,1-.09.19h-.17a8.38,8.38,0,0,1-1-.68h0a7,7,0,0,1,0,1.29.39.39,0,0,1-.41.15.24.24,0,0,1-.19-.15v-.12A5.93,5.93,0,0,1,38.09,17c-.08-.07-.09.08-.16.12l-.07.08a5.39,5.39,0,0,1-.58.59c0,.06-.08.06-.1.1s-.32.37-.56.24V18c0-.08.12-.13.18-.18a4.67,4.67,0,0,0,1-1.17H36.69a.14.14,0,0,1,0-.17h1.37l.09-.06c0-.2-.1-.49.14-.58a.46.46,0,0,1,.41.05"/><path class="cls-1" d="M49.12,16c.13.12,0,.31.06.47v1.64a.27.27,0,0,0,.16.1h.86a.66.66,0,0,0,.43-.55.37.37,0,0,1,.25-.17.42.42,0,0,1,.36.16.76.76,0,0,1-.33.68,5.49,5.49,0,0,1-1.85.11.5.5,0,0,1-.45-.27v-2.1c0-.1.12-.13.2-.16a.42.42,0,0,1,.29.07"/><path class="cls-1" d="M50.15,16.34a3.07,3.07,0,0,1,.43.69.23.23,0,0,1,0,.2.48.48,0,0,1-.35.1c-.35,0-.23-.47-.4-.68s-.29-.36-.25-.6a.29.29,0,0,1,.29-.07,2.24,2.24,0,0,1,.33.36"/><path class="cls-1" d="M51.4,16.56c.18.22.37.44.53.67a.21.21,0,0,1,0,.24.44.44,0,0,1-.41.1c-.19-.1-.2-.32-.27-.49a5.87,5.87,0,0,0-.43-.67.17.17,0,0,1,0-.17.31.31,0,0,1,.23,0c.15.07.24.25.36.35"/><path class="cls-1" d="M48.15,16.43a3.22,3.22,0,0,1-.09.87c-.09.26,0,.63-.35.73a1,1,0,0,1-.34,0,.4.4,0,0,1-.22.35l-.23.08a13.19,13.19,0,0,1-1.54,0,.55.55,0,0,1-.27-.17V16.86a.48.48,0,0,1,.19-.27,1.07,1.07,0,0,1,.53-.07H47c.59.07.28.73.38,1.11l.1-.09a3.19,3.19,0,0,0,.29-1c0-.1.13-.09.2-.12a.31.31,0,0,1,.2.11"/><path class="cls-2" d="M46.75,16.76v1.38h-1V16.76l.1-.05h.94Z"/><path class="cls-2" d="M41.85,17.05h0v1H41V17a6.31,6.31,0,0,1,.87,0"/><rect class="cls-1" x="0.05" y="8.96" width="6.81" height="0.29"/><rect class="cls-1" x="14.23" y="8.96" width="3.02" height="0.29"/><rect class="cls-1" x="22.69" y="8.96" width="1.95" height="0.29"/><rect class="cls-1" x="27.05" y="9.02" width="26.94" height="0.29"/><rect class="cls-1" x="0.06" y="14.33" width="4.45" height="0.29"/><rect class="cls-1" x="9.2" y="14.33" width="1.14" height="0.29"/><rect class="cls-1" x="14.64" y="14.33" width="9.46" height="0.29"/><rect class="cls-1" x="27.52" y="14.33" width="3.82" height="0.29"/><rect class="cls-1" x="33.89" y="14.33" width="2.21" height="0.29"/><rect class="cls-1" x="52.14" y="14.33" width="1.86" height="0.29"/><rect class="cls-1" x="0.06" y="16.47" width="4.52" height="0.29"/><rect class="cls-1" x="8.67" y="16.47" width="3.02" height="0.29"/><rect class="cls-1" x="18.19" y="16.47" width="5.77" height="0.29"/><rect class="cls-1" x="27.85" y="16.47" width="8.25" height="0.29"/><rect class="cls-1" x="52.14" y="16.47" width="1.86" height="0.29"/><rect class="cls-1" x="0.06" y="17.61" width="2.04" height="0.29"/><rect class="cls-1" x="8.13" y="17.61" width="4.36" height="0.29"/><rect class="cls-1" x="20.54" y="17.61" width="3.22" height="0.29"/><rect class="cls-1" x="28.19" y="17.61" width="7.98" height="0.29"/><rect class="cls-1" x="52" y="17.61" width="1.99" height="0.29"/><rect class="cls-1" x="0.06" y="19.56" width="2.1" height="0.29"/><rect class="cls-1" x="6.72" y="19.56" width="7.45" height="0.29"/><rect class="cls-1" x="20.94" y="19.56" width="2.95" height="0.29"/><rect class="cls-1" x="28.05" y="19.56" width="25.94" height="0.29"/><path class="cls-1" d="M64.36,19.47h1.76v-.3H64.3v-1h1.63v-.3H62.41v.3H64v1H62.22v.3H64A2.27,2.27,0,0,1,63,21a3.63,3.63,0,0,1-.87.46h0l.18.25h0a3.21,3.21,0,0,0,1.92-1.86,3.27,3.27,0,0,0,1.86,1.86h0l.18-.26h0A3.13,3.13,0,0,1,64.36,19.47Z"/><path class="cls-1" d="M71.39,18.13h1.74v3.53h.36V19A18.36,18.36,0,0,1,75,20.18h0l.21-.28h0a18.82,18.82,0,0,0-1.67-1.27v-.5h2v-.29h-4Z"/><polygon class="cls-1" points="82.08 20.14 82.07 20.12 81.78 20.2 81.94 21.09 81.94 21.11 82.23 21.06 82.08 20.14"/><path class="cls-1" d="M82,19.92h0l.28-.08h0A5.6,5.6,0,0,0,82,19h0l-.27.1h0l.05.1a1.08,1.08,0,0,0,.08.19l-.64.07A3.5,3.5,0,0,0,82,18.18h0l-.28-.08h0a4,4,0,0,1-.3.67,3.2,3.2,0,0,0-.27-.25,7,7,0,0,0,.38-.78h0l-.26-.13h0c-.1.25-.2.49-.32.73-.14-.11-.18-.13-.21-.13h0l-.14.25h0a3.64,3.64,0,0,1,.68.55c-.15.21-.28.39-.4.53h-.27l.07.29.66-.06v1.92h.29V19.76H82Z"/><path class="cls-1" d="M80.82,20.15a6.2,6.2,0,0,1-.3,1.2h0l.28.08h0a5.84,5.84,0,0,0,.31-1.23h0l-.29-.06Z"/><polygon class="cls-1" points="83.61 20.28 84.64 20.28 84.64 19.98 82.33 19.98 82.33 20.28 83.31 20.28 83.31 21.25 82.08 21.25 82.08 21.54 84.74 21.54 84.74 21.25 83.61 21.25 83.61 20.28"/><rect class="cls-1" x="82.19" y="17.75" width="2.49" height="0.29"/><path class="cls-1" d="M82.73,18.69l.16-.34h0l-.27-.13h0a2,2,0,0,1-.35.69v.23a2.35,2.35,0,0,1,.34.67h0l.26-.15h0A2.48,2.48,0,0,0,82.5,19s0-.05.15-.28A.09.09,0,0,1,82.73,18.69Z"/><path class="cls-1" d="M83.74,18.36h0l-.24-.13h0a2.26,2.26,0,0,1-.39.67q-.08.08.06.24a2.88,2.88,0,0,1,.39.65h0l.25-.17h0a3.67,3.67,0,0,0-.42-.61V19A3,3,0,0,0,83.74,18.36Z"/><path class="cls-1" d="M84.54,18.34h0l-.27-.13h0a1.93,1.93,0,0,1-.32.68.53.53,0,0,0,0,.21,3.21,3.21,0,0,1,.37.65h0l.25-.16h0a3.85,3.85,0,0,0-.39-.6v-.06A4.75,4.75,0,0,0,84.54,18.34Z"/><path class="cls-1" d="M90.66,19.53l.2.2h0a1,1,0,0,0,.33-.32v.29h0a.9.9,0,0,0,.46,0,.36.36,0,0,0,.15-.15,4.21,4.21,0,0,0,.07-1h0a0,0,0,0,0,0-.05h-1v.29h.25a1,1,0,0,1-.45.75Zm.75-.76h.23a1.09,1.09,0,0,1,0,.36c0,.13,0,.22-.08.25a.91.91,0,0,1-.33,0A1.35,1.35,0,0,0,91.41,18.77Z"/><path class="cls-1" d="M92.49,19.78v-1l.18-.16.22-.21h0l-.2-.22h0l-.35.33c-.11-.11-.22-.22-.34-.32h0l-.19.19h0a4.59,4.59,0,0,1,.39.37v1Z"/><path class="cls-1" d="M90.56,18.46h0l.19-.23h0a2.92,2.92,0,0,0-.63-.48h0l-.18.24h0A4,4,0,0,1,90.56,18.46Z"/><polygon class="cls-1" points="93.84 17.86 92.48 17.86 92.48 17.63 92.19 17.63 92.19 17.86 90.87 17.86 90.87 18.15 93.84 18.15 93.84 17.86"/><path class="cls-1" d="M90.49,19.36l.18-.24h0a3.09,3.09,0,0,0-.66-.48h0l-.17.25h0a5.06,5.06,0,0,1,.65.46Z"/><path class="cls-1" d="M93.49,18.66l.32-.15h0l-.2-.23h0a2.28,2.28,0,0,1-.76.26h0a.06.06,0,0,0,0,.06v.87H92.7v.27h0a3.72,3.72,0,0,0,.75-.17h0l-.08-.28h0l-.28.09V18.8h.1a2.63,2.63,0,0,0,.5.95h0l.28-.12h0A2.75,2.75,0,0,1,93.49,18.66Z"/><path class="cls-1" d="M93.19,20h-1.7v-.2h-.3v.95a.7.7,0,0,1-.27.58,1,1,0,0,1-.22.13h0l.19.22h0a1.06,1.06,0,0,0,.58-.77H93.2v.74h.3V19.8h-.3Zm-1.71.59v-.3h1.71v.3Z"/><path class="cls-1" d="M90.72,19.93l-.29-.05h0a3.58,3.58,0,0,1-.59,1.55h0l.28.12h0a3.94,3.94,0,0,0,.61-1.62Z"/><path class="cls-1" d="M102.91,19.08h-2.23s-.07,0-.08.06v2.48h.29V20.47h.4v1.08h.3V20.47H102v1.08h.28v.08h0a1.71,1.71,0,0,0,.32,0,.37.37,0,0,0,.25-.06.28.28,0,0,0,.13-.25v-2.2A.08.08,0,0,0,102.91,19.08Zm-.21.29v.8h-.4v-.79Zm-.7,0v.79h-.41v-.79Zm-.71,0v.79h-.4v-.79Zm1.41,1.88a.11.11,0,0,1-.06.1,1.94,1.94,0,0,1-.34-.05h0v-.84h.4Z"/><rect class="cls-1" x="99.18" y="17.79" width="1.08" height="0.29"/><path class="cls-1" d="M101.89,17.63h-.17a4.23,4.23,0,0,1-1.22.78h0l.17.24h0l.29-.14v.29h1.65v-.3l.33.18h0l.16-.22h0A5.3,5.3,0,0,1,101.89,17.63Zm-.93.88a3.61,3.61,0,0,0,.84-.61,3,3,0,0,0,.8.61Z"/><rect class="cls-1" x="99.21" y="18.91" width="1.03" height="0.29"/><path class="cls-1" d="M100.22,20.09h-1c-.06,0-.09,0-.09.1v1.47h.36v-.38h.77a.1.1,0,0,0,.11-.09v-1a.08.08,0,0,0-.08-.1A.07.07,0,0,0,100.22,20.09Zm-.19.31V21h-.54v-.58H100Z"/><rect class="cls-1" x="99.21" y="19.52" width="1.03" height="0.29"/><rect class="cls-1" x="99.08" y="18.32" width="1.31" height="0.29"/><path class="cls-1" d="M110.15,19.39h1.52V18.8m0-.05h-1.52v.58s0,.05,0,.06Zm-1.28.39V19h1v.15h-1Z"/><polygon class="cls-1" points="112.32 17.8 111.02 17.8 111.02 17.63 110.72 17.63 110.72 17.8 109.42 17.8 109.42 18.09 112.32 18.09 112.32 17.8"/><rect class="cls-1" x="109.47" y="21.32" width="2.88" height="0.29"/><path class="cls-1" d="M109.72,19.94v1.14s0,.06,0,.06h2.31s0,0,.06,0V20h-.06Zm2.13,1H110V20.7h1.84Zm0-.69v.21H110v-.21Z"/><path class="cls-1" d="M109.62,20.6l-.18-.21h0l-.39.28V19.13h.41v-.29h-.41V17.68h-.29v1.16h-.37v.29h.37v1.72l-.42.22h0l.18.23h0a6.1,6.1,0,0,0,1.11-.7Z"/><path class="cls-1" d="M112.21,19.71V18.32a.06.06,0,0,0-.06-.06h-2.48a.06.06,0,0,0-.06.06v1.39s0,.05,0,.06h2.5A.06.06,0,0,0,112.21,19.71Zm-.29-1.17v.95h-2v-.95Z"/><path class="cls-1" d="M63.06,22.91a.72.72,0,0,1,.72.63h.28a1,1,0,0,0-1-.87,1,1,0,0,0-.74.31c-.28.27-.28.54-.28,1.18s0,.91.28,1.19a1.07,1.07,0,0,0,.74.3,1,1,0,0,0,1-.86h-.27a.75.75,0,0,1-1.26.41c-.2-.2-.21-.41-.21-1s0-.83.21-1A.75.75,0,0,1,63.06,22.91Z"/><path class="cls-1" d="M65,23.59a.82.82,0,0,0-.56.22,1.09,1.09,0,0,0-.25.81,1.06,1.06,0,0,0,.25.8.83.83,0,0,0,1.12,0,1.42,1.42,0,0,0,0-1.61A.82.82,0,0,0,65,23.59Zm.55,1a.85.85,0,0,1-.17.63.56.56,0,0,1-.76,0,.94.94,0,0,1-.17-.63.89.89,0,0,1,.17-.63A.47.47,0,0,1,65,23.8a.55.55,0,0,1,.38.16h0a.83.83,0,0,1,.17.66Z"/><path class="cls-1" d="M68.13,23.59a.78.78,0,0,0-.66.33.73.73,0,0,0-.63-.33.76.76,0,0,0-.55.21v-.18H66v2h.26V24.38a.5.5,0,0,1,.42-.55h.1c.33,0,.51.19.51.55v1.24h.26V24.35a.49.49,0,0,1,.46-.52h.06c.34,0,.51.19.51.55v1.24h.26V24.35a.71.71,0,0,0-.74-.76Z"/><path class="cls-1" d="M71.27,23.59a.81.81,0,0,0-.66.33.7.7,0,0,0-.63-.33.81.81,0,0,0-.55.21v-.18h-.26v2h.26V24.38a.5.5,0,0,1,.42-.55H70c.33,0,.5.19.5.55v1.24h.27V24.35a.48.48,0,0,1,.44-.52h.08c.33,0,.51.19.51.55v1.24H72V24.35a.74.74,0,0,0-.22-.56A.69.69,0,0,0,71.27,23.59Z"/><path class="cls-1" d="M73,23.59a.82.82,0,0,0-.56.22,1.08,1.08,0,0,0-.25.81,1.06,1.06,0,0,0,.25.8.82.82,0,0,0,1.12,0,1.42,1.42,0,0,0,0-1.61A.82.82,0,0,0,73,23.59Zm.55,1a.94.94,0,0,1-.17.63.54.54,0,0,1-.38.15.58.58,0,0,1-.39-.15,1.34,1.34,0,0,1,0-1.26A.55.55,0,0,1,73,23.8a.47.47,0,0,1,.38.16h0a.92.92,0,0,1,.17.66Z"/><path class="cls-1" d="M74.85,23.59a.72.72,0,0,0-.54.21v-.18H74v2h.27V24.38a.5.5,0,0,1,.43-.55h.09c.33,0,.5.19.5.55v1.24h.27V24.35a.71.71,0,0,0-.66-.76Z"/><polygon class="cls-1" points="78.74 22.69 78.45 22.69 77.86 25.1 77.22 22.71 77.22 22.69 76.94 22.69 76.3 25.1 75.72 22.71 75.71 22.69 75.43 22.69 76.15 25.6 76.16 25.62 76.42 25.62 77.08 23.2 77.73 25.6 77.74 25.62 78 25.62 78.73 22.72 78.74 22.69"/><path class="cls-1" d="M79.28,23.59c-.5,0-.81.38-.81,1s.31,1,.86,1a.91.91,0,0,0,.72-.31h0l-.19-.15h0a.64.64,0,0,1-.52.22c-.39,0-.59-.25-.6-.71h1.35v-.12A.83.83,0,0,0,79.28,23.59Zm.54.88H78.74a1,1,0,0,1,.06-.33.53.53,0,0,1,1,0A.92.92,0,0,1,79.82,24.47Z"/><path class="cls-1" d="M81.08,23.59a.77.77,0,0,0-.71.31h0l.2.17h0a.54.54,0,0,1,.52-.23c.36,0,.52.14.52.45v.19H81c-.45,0-.71.22-.71.59a.59.59,0,0,0,.15.4,1,1,0,0,0,1.16,0v.16h.26V24.26C81.86,23.82,81.59,23.59,81.08,23.59Zm.52,1.1v.22a.44.44,0,0,1-.1.35.61.61,0,0,1-.47.14c-.33,0-.48-.1-.48-.35s.16-.36.47-.36Z"/><path class="cls-1" d="M82.43,25.08V22.69h-.27v2.4a.48.48,0,0,0,.4.53h.31v-.24H82.7C82.49,25.38,82.43,25.3,82.43,25.08Z"/><path class="cls-1" d="M83.24,23H83v.62h-.27v.21H83v1.25a.49.49,0,0,0,.42.54h.28v-.24h-.19c-.18,0-.27-.1-.27-.29V23.83h.44v-.21h-.44Z"/><path class="cls-1" d="M84.65,23.59a.72.72,0,0,0-.54.21V22.69h-.26v2.93h.26V24.38a.5.5,0,0,1,.43-.55h.09c.33,0,.51.19.51.55v1.24h.26V24.35a.7.7,0,0,0-.64-.76Z"/><polygon class="cls-1" points="87.17 25.62 88.97 25.62 88.97 25.37 87.44 25.37 87.44 24.27 88.74 24.27 88.74 24.02 87.44 24.02 87.44 22.94 88.97 22.94 88.97 22.69 87.17 22.69 87.17 25.62"/><path class="cls-1" d="M89.9,23.83a.55.55,0,0,1,.48.24h0l.18-.17h0a.78.78,0,0,0-.66-.31,1,1,0,0,0,0,2,.78.78,0,0,0,.66-.31h0l-.18-.16h0a.62.62,0,0,1-1,0,.85.85,0,0,1-.13-.54.8.8,0,0,1,.13-.54A.57.57,0,0,1,89.9,23.83Z"/><path class="cls-1" d="M91.42,23.59a.82.82,0,0,0-.56.22,1.42,1.42,0,0,0,0,1.61.83.83,0,0,0,1.12,0,1.42,1.42,0,0,0,0-1.61A.82.82,0,0,0,91.42,23.59Zm.55,1a.85.85,0,0,1-.17.63.56.56,0,0,1-.76,0A1.25,1.25,0,0,1,91,24a.53.53,0,0,1,.75,0h0a.83.83,0,0,1,.17.66Z"/><path class="cls-1" d="M93.25,23.59a.72.72,0,0,0-.54.21v-.18h-.22v2h.26V24.38a.5.5,0,0,1,.43-.55h.09c.33,0,.51.19.51.55v1.24H94V24.35a.71.71,0,0,0-.66-.76h-.13Z"/><path class="cls-1" d="M95,23.59a.82.82,0,0,0-.56.22,1.42,1.42,0,0,0,0,1.61.82.82,0,0,0,1.12,0,1.06,1.06,0,0,0,.25-.8,1.09,1.09,0,0,0-.25-.81A.82.82,0,0,0,95,23.59Zm0,1.81a.54.54,0,0,1-.38-.15.89.89,0,0,1-.17-.63.85.85,0,0,1,.17-.63.47.47,0,0,1,.38-.16.55.55,0,0,1,.39.16h0a1.34,1.34,0,0,1,0,1.26A.58.58,0,0,1,95,25.4Z"/><path class="cls-1" d="M98.13,23.59a.78.78,0,0,0-.66.33.73.73,0,0,0-.63-.33.81.81,0,0,0-.55.21v-.18H96v2h.26V24.38a.5.5,0,0,1,.42-.55h.1c.33,0,.51.19.51.55v1.24h.26V24.35a.49.49,0,0,1,.46-.52h.06c.33,0,.51.19.51.55v1.24h.26V24.35a.71.71,0,0,0-.74-.76Z"/><rect class="cls-1" x="99.15" y="22.69" width="0.31" height="0.31"/><rect class="cls-1" x="99.17" y="23.62" width="0.26" height="2"/><path class="cls-1" d="M100.49,23.83a.55.55,0,0,1,.48.24h0l.19-.17h0a.8.8,0,0,0-.67-.31,1,1,0,0,0,0,2,.8.8,0,0,0,.67-.31h0l-.19-.16h0a.62.62,0,0,1-1,0A1.19,1.19,0,0,1,100,24,.57.57,0,0,1,100.49,23.83Z"/><polygon class="cls-1" points="102.94 22.94 104.46 22.94 104.46 22.69 102.66 22.69 102.66 25.62 102.94 25.62 102.94 24.31 104.24 24.31 104.24 24.06 102.94 24.06 102.94 22.94"/><path class="cls-1" d="M105.23,23.59a.82.82,0,0,0-.56.22,1.09,1.09,0,0,0-.25.81,1.06,1.06,0,0,0,.25.8.84.84,0,0,0,1.13,0,1.42,1.42,0,0,0,0-1.61A.85.85,0,0,0,105.23,23.59Zm.55,1a.88.88,0,0,1-.16.63.56.56,0,0,1-.39.15.54.54,0,0,1-.38-.15,1.32,1.32,0,0,1,0-1.26.55.55,0,0,1,.38-.16.48.48,0,0,1,.39.16.87.87,0,0,1,.16.66Z"/><path class="cls-1" d="M107.06,23.59a.74.74,0,0,0-.54.23v-.2h-.26v2h.23V24.39a.51.51,0,0,1,.46-.56h0a.4.4,0,0,1,.34.15h0l.19-.19h0A.63.63,0,0,0,107.06,23.59Z"/><path class="cls-1" d="M108.94,24.85a.5.5,0,0,1-.43.55h-.09c-.34,0-.51-.19-.51-.55V23.62h-.26v1.27a.77.77,0,0,0,.21.56.72.72,0,0,0,.53.19.76.76,0,0,0,.55-.21v.19h.26v-2h-.26Z"/><path class="cls-1" d="M112.16,23.79a.73.73,0,0,0-.53-.2.76.76,0,0,0-.66.33.73.73,0,0,0-.63-.33.76.76,0,0,0-.55.21v-.18h-.3v2h.26V24.38a.5.5,0,0,1,.43-.55h.09c.33,0,.51.19.51.55v1.24H111V24.35a.49.49,0,0,1,.46-.52h.06c.34,0,.51.19.51.55v1.24h.26V24.35A.75.75,0,0,0,112.16,23.79Z"/><path class="cls-1" d="M94.36,16.19c-4.82,0-8.75-3.64-8.75-8.11S89.54,0,94.36,0s8.74,3.64,8.74,8.11S99.18,16.19,94.36,16.19Zm0-16.08c-4.74,0-8.6,3.58-8.6,8s3.86,8,8.6,8,8.59-3.58,8.59-8S99.1.11,94.36.11Z"/><path class="cls-1" d="M94.36,16.2c-3.26,0-5.9-3.64-5.9-8.12S91.1,0,94.36,0s5.9,3.64,5.9,8.12S97.61,16.2,94.36,16.2Zm0-16.08c-3.17,0-5.75,3.57-5.75,8s2.58,8,5.75,8,5.74-3.57,5.74-8S97.49.12,94.36.12Z"/><rect class="cls-1" x="94.28" y="0.04" width="0.15" height="16.08"/><rect class="cls-1" x="86.49" y="4.61" width="15.71" height="0.16"/><rect class="cls-1" x="86.37" y="11.19" width="15.96" height="0.16"/><rect class="cls-1" x="85.68" y="8.01" width="17.29" height="0.15"/><path class="cls-2" d="M99.81,1.77v3h-.23c-.06-.2-.16-.45-.29-.76a4.11,4.11,0,0,0-.59-.9,3.4,3.4,0,0,0-1-.76A3.07,3.07,0,0,0,96.28,2H93.07V8h1a2.73,2.73,0,0,0,1.09-.19,1.88,1.88,0,0,0,.75-.52,2.81,2.81,0,0,0,.48-.82,5.82,5.82,0,0,0,.32-1.08h.23v5.44h-.23a8.78,8.78,0,0,0-.29-1A2.88,2.88,0,0,0,96,9a2,2,0,0,0-.7-.57,2.14,2.14,0,0,0-1-.21H93.11V14H96a3.66,3.66,0,0,0,2.59-1,4.27,4.27,0,0,0,.83-1.15,7,7,0,0,0,.51-1.41h.23v3.83H88.76V14h1.78V2H88.93V1.77Z"/><polygon class="cls-1" points="85.47 1.9 86.32 1.9 83.4 11.69 83.36 11.69 80.91 1.89 81.71 1.89 81.71 1.65 77.95 1.64 77.95 1.88 78.63 1.88 80.32 8.05 78.77 12.07 78.73 12.07 76.23 1.88 76.97 1.88 76.97 1.64 73.27 1.63 73.27 1.87 73.97 1.87 77.37 14.49 78.12 14.49 80.43 8.47 82.08 14.5 82.83 14.5 86.62 1.9 87.39 1.9 87.39 1.65 85.47 1.66 85.47 1.9"/><path class="cls-1" d="M72,11.9a4.8,4.8,0,0,1-.82,1.18,3.56,3.56,0,0,1-1.13.83,3,3,0,0,1-1.42.32A4.6,4.6,0,0,1,66.94,14a2.46,2.46,0,0,1-1.16-1,5.44,5.44,0,0,1-.65-1.89,16.76,16.76,0,0,1-.21-3A20.34,20.34,0,0,1,65,5.52a6.29,6.29,0,0,1,.48-2,3,3,0,0,1,1.11-1.31,3.6,3.6,0,0,1,2-.48A3.19,3.19,0,0,1,71.27,3,5,5,0,0,1,72,4.17c.18.42.33.83.46,1.21h.23V1.79h-.28a.42.42,0,0,1-.18.3.75.75,0,0,1-.36.07,2.14,2.14,0,0,1-.56-.11l-.79-.22-.89-.22a4.78,4.78,0,0,0-1-.1A6.15,6.15,0,0,0,66.32,2a7.09,7.09,0,0,0-2.1,1.32,6.82,6.82,0,0,0-1.55,2.06A5.94,5.94,0,0,0,62.07,8a6,6,0,0,0,.54,2.54,6.63,6.63,0,0,0,1.44,2A6.74,6.74,0,0,0,66.14,14a6.37,6.37,0,0,0,3.53.41l.93-.21.76-.21a2.05,2.05,0,0,1,.55-.1.64.64,0,0,1,.36.08.56.56,0,0,1,.21.29h.28V10.52h-.27A5.7,5.7,0,0,1,72,11.9Z"/><path class="cls-1" d="M102,1.77V2h1.61V14H102v.24h5.76V14h-1.62V8.18h1.17a2.46,2.46,0,0,1,1,.21A2.11,2.11,0,0,1,109,9a2.88,2.88,0,0,1,.44.83,7.12,7.12,0,0,1,.29,1H110V5.34h-.23a5.76,5.76,0,0,1-.26,1.07,2.63,2.63,0,0,1-.49.82,2.06,2.06,0,0,1-.74.53,2.9,2.9,0,0,1-1.09.18h-1V2h2.64a3.33,3.33,0,0,1,1.21.19,2.7,2.7,0,0,1,.9.55,3.75,3.75,0,0,1,.67.86,9.81,9.81,0,0,1,.53,1.14h.23v-3Z"/></svg>