<svg id="圖層_1" data-name="圖層 1" xmlns="http://www.w3.org/2000/svg" viewBox="0 0 182 38"><defs><style>.cls-1{fill:#fff;}</style></defs><path class="cls-1" d="M173,7.56,172.45.82l-.54,6.74a2.17,2.17,0,0,1-2,2l-6.74.53,6.74.53a2.17,2.17,0,0,1,2,2l.54,6.74.53-6.74a2.17,2.17,0,0,1,2-2l6.74-.53L175,9.56A2.17,2.17,0,0,1,173,7.56Z"/><path class="cls-1" d="M20.6,18.88c0-.44.19-.65.57-.65h1.12c.43,0,.64.2.64.61v.37c0,.34.16.51.49.51h2.27a.55.55,0,0,1,.63.46.43.43,0,0,1,0,.16v.84c0,.42-.14.63-.43.63s-.51.21-.63.62l-.46,2c-.09.32,0,.49.35.49H26c.43,0,.64.2.64.61v.86c0,.43-.2.64-.62.64H23.39c-.34,0-.51,0-.51.45s.16.46.49.46h2.38c.42,0,.63.2.63.61v.88c0,.43-.2.64-.61.64H23.94c-.42,0-.47.14-.14.41q.94.63,1.89,1.35a.76.76,0,0,1,.12,1.07l-.06.06-.45.64c-.32.42-.68.42-1.09,0l-.74-.76c-.4-.37-.59-.39-.59,0v3.77a.56.56,0,0,1-.47.64H21.29a.56.56,0,0,1-.64-.47.38.38,0,0,1,0-.15V33.2c0-.36-.18-.32-.53.12a13.84,13.84,0,0,1-1.79,1.8c-.38.26-.71.18-1-.26L17,34.2a.68.68,0,0,1,.15-1,.4.4,0,0,1,.18-.1,12.69,12.69,0,0,0,2.5-2.57c.23-.35.18-.53-.14-.53H18a.55.55,0,0,1-.63-.46.43.43,0,0,1,0-.16v-.88c0-.42.2-.63.61-.63h2.24c.34,0,.51-.08.51-.42a.43.43,0,0,0-.49-.49H17.61c-.43,0-.64-.2-.64-.62v-.86a.55.55,0,0,1,.46-.63.43.43,0,0,1,.16,0h.86c.32,0,.48-.63.45-1a15.58,15.58,0,0,0-.25-1.54.59.59,0,0,0-.65-.5.53.53,0,0,1-.6-.45.43.43,0,0,1,0-.16V20.4a.56.56,0,0,1,.47-.64.38.38,0,0,1,.15,0h2.07c.34,0,.51-.16.51-.49Zm2.48,3.47q.15-.54-.33-.54H21.13c-.33,0-.45.21-.39.62l.31,2a.67.67,0,0,0,.74.49c.42,0,.71-.63.86-1ZM28,19.41a31.41,31.41,0,0,0,5.52-1.12.74.74,0,0,1,1,.36l0,.05.43.75c.28.51.2.83-.24,1a26.26,26.26,0,0,1-4.47,1,.55.55,0,0,0-.49.6v.07c0,.34.16.51.49.51h4.84a.55.55,0,0,1,.63.46.43.43,0,0,1,0,.16v.88c0,.42-.2.81-.61.81h-.51c-.35,0-.52.16-.52.49V36.54c0,.42-.2.64-.61.64H32.37a.55.55,0,0,1-.63-.46.43.43,0,0,1,0-.16V25.38a.46.46,0,0,0-.38-.51H30.18c-.34,0-.52.21-.54.62a36.8,36.8,0,0,1-.88,8.69,11.23,11.23,0,0,1-1.11,2.32c-.34.45-.74.48-1.21.08L26,36.25c-.5-.41-.6-.83-.3-1.27a10.32,10.32,0,0,0,1.21-3.12c.26-1.64.41-5.52.45-7.7v-4a.67.67,0,0,1,.56-.75Z"/><path class="cls-1" d="M39.76,18.87c0-.42.2-.64.59-.64h1.07a.55.55,0,0,1,.63.46.43.43,0,0,1,0,.16v3.21a.46.46,0,0,0,.38.51h.71a.56.56,0,0,1,.64.47.38.38,0,0,1,0,.15v1a.56.56,0,0,1-.47.64.38.38,0,0,1-.15,0h-.59c-.34,0-.52.16-.52.49V30.2c0,.33.21.44.62.33l.62-.2c.5-.17.8,0,.88.41l.12.67a.82.82,0,0,1-.44,1.06h0A32.73,32.73,0,0,1,39.29,34a.64.64,0,0,1-.83-.37s0-.05,0-.08c-.13-.35-.25-.69-.34-1-.18-.52-.06-.83.37-.92l.65-.17c.44-.12.66-.34.66-.67V25.38a.44.44,0,0,0-.36-.51.57.57,0,0,0-.13,0h-.6c-.42,0-.63-.2-.63-.61v-1c0-.42.2-.64.61-.64h.62c.34,0,.51-.16.51-.49Zm5,7.05a.56.56,0,0,1,.47-.64.38.38,0,0,1,.15,0h10a.56.56,0,0,1,.64.47.38.38,0,0,1,0,.15v5.86c0,.43-.2.64-.61.64H53.15c-.34,0-.51.16-.51.49a3,3,0,0,0,.16,1.58c.22.24.34.24.82.26.78,0,1.09-.16,1.15-.77s.31-.61.76-.41l1,.47a.86.86,0,0,1,.52.94l-.17.62c-.22.61-.36.94-1,1.14a10.62,10.62,0,0,1-3.6.17,4.82,4.82,0,0,1-1-.14c-.63-.16-.66-.42-.87-1a9.43,9.43,0,0,1-.19-2.85q0-.51-.45-.51c-.3,0-.53.2-.68.61a5.43,5.43,0,0,1-2.32,2.83,7.48,7.48,0,0,1-2.72,1.09.75.75,0,0,1-1-.4l0-.11a6.21,6.21,0,0,1-.3-.82c-.18-.51-.06-.8.37-.89a5.13,5.13,0,0,0,3.38-1.8q.28-.51-.21-.51h-1a.55.55,0,0,1-.62-.47.38.38,0,0,1,0-.15Zm4.51-7c0-.46.2-.7.6-.7H51q.63,0,.63.66c0,.45.17.59.49.59h3.49c.42,0,.64.2.64.61v.78a.56.56,0,0,1-.47.64.38.38,0,0,1-.15,0H55.2c-.33,0-.58.2-.76.61s-.06.62.27.62H56c.42,0,.64.2.64.61v.8a.56.56,0,0,1-.47.64H44.82a.55.55,0,0,1-.63-.46.43.43,0,0,1,0-.16v-.8c0-.42.2-.63.61-.63h1.49c.33,0,.45-.21.37-.62A.66.66,0,0,0,46,21.5h-.71a.55.55,0,0,1-.63-.46.43.43,0,0,1,0-.16V20.1c0-.42.2-.63.61-.63h3.55c.3,0,.47-.11.47-.54Zm4.37,8.76q0-.33-.45-.33H47.67q-.51,0-.51.27c0,.2.17.31.49.31h5.48C53.47,27.91,53.64,27.82,53.64,27.68Zm0,2.44q0-.33-.51-.33H47.67c-.34,0-.51.1-.51.29s.17.33.49.33h5.48c.33,0,.5-.12.53-.31Zm-1.7-8q.21-.63-.27-.63H49.42c-.33,0-.45.2-.37.61a.7.7,0,0,0,.7.62H51.2a.85.85,0,0,0,.76-.58Z"/><path class="cls-1" d="M74.42,18.88c0-.44.2-.65.58-.65h1.13c.42,0,.63.2.63.61v.37a.45.45,0,0,0,.4.48h2.39a.56.56,0,0,1,.64.47.38.38,0,0,1,0,.15v.84c0,.42-.15.63-.44.63s-.51.21-.63.62l-.45,2c-.1.32,0,.49.35.49h.88c.42,0,.63.2.63.61v.86c0,.43-.2.64-.61.64H77.21c-.34,0-.51,0-.51.45s.16.46.49.46h2.38c.42,0,.64.2.64.61v.88a.56.56,0,0,1-.47.64h-2c-.43,0-.48.14-.15.41q.94.63,1.89,1.35c.36.3.38.68.06,1.13l-.45.64c-.31.42-.68.42-1.09,0l-.74-.75c-.39-.37-.59-.39-.59,0v3.77a.56.56,0,0,1-.47.64H75.14a.55.55,0,0,1-.63-.46.43.43,0,0,1,0-.16V33.2q0-.54-.54.12a13.76,13.76,0,0,1-1.78,1.8c-.38.26-.71.18-1-.26l-.37-.66a.71.71,0,0,1,.14-1l.11-.07a12.43,12.43,0,0,0,2.5-2.57c.24-.35.19-.53-.14-.53H71.78a.56.56,0,0,1-.64-.47.38.38,0,0,1,0-.15v-.88a.55.55,0,0,1,.46-.63.43.43,0,0,1,.16,0H74c.34,0,.52-.08.52-.42S74.34,27,74,27H71.43a.56.56,0,0,1-.64-.47.38.38,0,0,1,0-.15v-.86a.55.55,0,0,1,.46-.63.43.43,0,0,1,.16,0h.88c.33,0,.48-.63.45-1s-.14-1-.24-1.54a.59.59,0,0,0-.66-.5.53.53,0,0,1-.6-.45.43.43,0,0,1,0-.16V20.4a.56.56,0,0,1,.47-.64.38.38,0,0,1,.15,0h2.07c.34,0,.51-.16.51-.49Zm2.49,3.47q.14-.54-.33-.54H75c-.33,0-.46.21-.39.62l.3,2a.67.67,0,0,0,.74.49c.43,0,.71-.63.86-1Zm4.92-2.94a31.3,31.3,0,0,0,5.51-1.12.75.75,0,0,1,1,.39l.43.75c.27.51.19.83-.25,1a26.26,26.26,0,0,1-4.47,1,.55.55,0,0,0-.49.6v.07c0,.34.16.51.49.51h4.84a.56.56,0,0,1,.64.47.38.38,0,0,1,0,.15v.88c0,.42-.21.81-.62.81h-.51c-.34,0-.51.16-.51.49V36.54a.56.56,0,0,1-.47.64H86.22a.56.56,0,0,1-.64-.47.38.38,0,0,1,0-.15V25.38c0-.34-.16-.51-.49-.51H84c-.34,0-.52.21-.53.62a37.33,37.33,0,0,1-.88,8.69,11.23,11.23,0,0,1-1.11,2.32.74.74,0,0,1-1.19.08l-.41-.33c-.51-.41-.61-.83-.31-1.27a10.32,10.32,0,0,0,1.21-3.12c.26-1.64.41-5.52.45-7.7v-4a.67.67,0,0,1,.56-.75Z"/><path class="cls-1" d="M92.58,26.28a.53.53,0,0,1,.47-.6H99.8c.42,0,.63.2.63.61v4.5a.57.57,0,0,1-.5.63h-.15c-.46,0-.68.17-.68.49v1q0,.51.63.24l.39-.16a.52.52,0,0,1,.82.35l.29,1.09a19.39,19.39,0,0,1-3.59,1.86.64.64,0,0,1-.86-.24.47.47,0,0,1-.06-.15l-.35-.82c-.18-.41-.16-.65.06-.74a.57.57,0,0,0,.41-.61v-1.8c0-.35-.09-.52-.28-.52s-.33.21-.37.62a6.8,6.8,0,0,1-.7,3.07A6.82,6.82,0,0,1,93.75,37c-.39.28-.78.19-1.19-.24l-.35-.41c-.41-.44-.43-.78,0-1a4.41,4.41,0,0,0,1.35-1.56,5.09,5.09,0,0,0,.37-1.89c0-.32-.21-.49-.64-.49s-.67-.2-.67-.61Zm7-4.18c-.06.31.14.46.59.46s.7.2.7.58v1.15a.53.53,0,0,1-.45.6H92.54c-.43,0-.64-.19-.64-.58V23.16a.53.53,0,0,1,.47-.6H93c.33,0,.47-.19.43-.57a.5.5,0,0,0-.52-.48h0c-.29,0-.44-.19-.44-.57v-.79c0-.39.21-.59.62-.59h1.8c.35,0,.52-.16.52-.46v-.25c0-.41.19-.62.57-.62h1.17c.42,0,.64.2.64.58v.27a.43.43,0,0,0,.37.48.24.24,0,0,0,.12,0H100c.42,0,.64.19.64.57v.79c0,.4-.15.59-.43.59a.62.62,0,0,0-.66.58Zm-1.4,6.27c0-.43-.15-.65-.45-.65H95.35c-.35,0-.52.2-.52.59s.17,1.07.49,1.07h2.3C98,29.38,98.13,28.76,98.13,28.37Zm-.75-6.56c.08-.44,0-.66-.37-.66H96c-.33,0-.46.2-.41.58a1.21,1.21,0,0,0,.06.38c.09.31.35.46.8.46A.76.76,0,0,0,97.3,22Zm4.2,4.47a.53.53,0,0,1,.46-.61.43.43,0,0,1,.16,0h7.46c.42,0,.64.2.64.61v4.4a.56.56,0,0,1-.47.64h-1.09c-.34,0-.52.16-.52.49v2.67c0,.36.07.49.35.53.11,0,.28-.07.29-.67a3.42,3.42,0,0,1,0-.64c0-.41.23-.53.64-.35l.8.39a.9.9,0,0,1,.57.92,4.38,4.38,0,0,1-.49,2.07c-.3.48-1.26.53-2.54.44A2.34,2.34,0,0,1,107,37a1.66,1.66,0,0,1-1.08-1.7V31.84c0-.34-.1-.51-.29-.51s-.33.21-.37.62a6.36,6.36,0,0,1-.86,3.07,6.13,6.13,0,0,1-2,1.89.92.92,0,0,1-1.22-.23L100.6,36c-.33-.36-.26-.65.2-.89a5,5,0,0,0,1.58-1.33,4.41,4.41,0,0,0,.61-2,.44.44,0,0,0-.36-.49.29.29,0,0,0-.13,0h-.28c-.43,0-.64-.2-.64-.61Zm7.63-4.18c-.06.31.08.46.41.46h.59c.43,0,.64.2.64.58v1.15a.53.53,0,0,1-.47.6h-8.47c-.43,0-.64-.19-.64-.58V23.16a.53.53,0,0,1,.47-.6h.43c.33,0,.47-.19.41-.57s-.59-.48-.59-.48c-.31,0-.47-.19-.47-.57v-.79a.52.52,0,0,1,.46-.59h2.31c.34,0,.51-.16.51-.46v-.25c0-.41.19-.62.57-.62h1.17c.43,0,.64.2.64.58v.27a.43.43,0,0,0,.37.48.24.24,0,0,0,.12,0h2.07c.43,0,.64.19.64.57v.79c0,.4-.15.59-.45.59a.65.65,0,0,0-.72.57ZM108,28.33c0-.41-.15-.61-.45-.61h-3.14q-.51,0-.51.57c0,.4.16,1,.49,1h3.1c.34,0,.51-.61.51-1Zm-.92-6.58c.09-.46,0-.69-.35-.69h-1.42c-.33,0-.47.2-.43.61a1.4,1.4,0,0,0,.06.41.55.55,0,0,0,.6.49h.9q.51,0,.63-.63Z"/><path class="cls-1" d="M125.84,18.92c2.31-.15,4.43-.36,6.36-.61a.86.86,0,0,1,.94.51l.41.82c.21.42.1.67-.31.74-.62.07-1.26.16-1.9.27a.52.52,0,0,0-.49.55v1.35c0,.34.16.52.49.52h2c.42,0,.63.2.63.61v1c0,.42-.2.63-.61.63h-2.05c-.34,0-.51.43-.51.74a1.46,1.46,0,0,0,.61,1,23.59,23.59,0,0,1,1.8,1.66.87.87,0,0,1,.2,1.21v0a5.16,5.16,0,0,0-.43.61c-.36.49-.7.51-1,.06l-.69-.86c-.3-.3-.45-.28-.45,0v6.63a.55.55,0,0,1-.46.63.43.43,0,0,1-.16,0h-1.13c-.42,0-.63-.2-.63-.61V31.23q0-.68-.39,0a13,13,0,0,1-1,1.39.72.72,0,0,1-1,.26.65.65,0,0,1-.18-.15,5,5,0,0,1-.41-.39.77.77,0,0,1-.22-1.07l.1-.12a15.34,15.34,0,0,0,2.75-5.07c.07-.33-.06-.76-.39-.76h-2c-.43,0-.64-.2-.64-.61v-1a.55.55,0,0,1,.46-.63.43.43,0,0,1,.16,0H128c.35,0,.52-.17.52-.5V21.49c0-.33-.21-.49-.62-.47l-1,.08a.85.85,0,0,1-1-.58l-.35-.9C125.34,19.18,125.46,19,125.84,18.92Zm14.19,0c0-.44.19-.65.58-.65h1.17c.42,0,.63.2.63.61v9.68c0,.33.21.46.62.41h.22a.53.53,0,0,1,.67.33.57.57,0,0,1,0,.18l.12,1c.06.43-.11.68-.51.74a2.2,2.2,0,0,0-.57.1c-.39,0-.58.22-.58.51v4.66c0,.42-.2.63-.61.63h-1.13c-.43,0-.64-.2-.64-.61v-4.2c0-.32-.2-.46-.61-.41l-5.13.86a.57.57,0,0,1-.73-.34.4.4,0,0,1,0-.15,8.37,8.37,0,0,1-.18-1,.56.56,0,0,1,.33-.71.57.57,0,0,1,.18,0l5.68-1a.54.54,0,0,0,.49-.59h0Zm-4.69,6.3a.9.9,0,0,1,1.23-.21,17.06,17.06,0,0,1,1.8,1.48.8.8,0,0,1,.18,1.13.39.39,0,0,1-.08.1l-.65.82c-.33.41-.67.45-1,.12a19,19,0,0,0-1.92-1.78c-.46-.34-.5-.7-.15-1.07Zm1.08-4.84a.86.86,0,0,1,1.2-.2h0a9.53,9.53,0,0,1,1.42,1.19c.44.44.5.84.2,1.21s-.44.55-.63.82a.67.67,0,0,1-.91.26.57.57,0,0,1-.22-.19A13.6,13.6,0,0,0,135.91,22c-.41-.32-.4-.69,0-1.13Z"/><path class="cls-1" d="M148.83,18.88c0-.44.19-.65.57-.65h1.17c.43,0,.64.2.64.61v1.42c0,.34.16.51.49.51h1.11a.55.55,0,0,1,.63.46.43.43,0,0,1,0,.16v1c0,.43-.2.64-.61.64h-1.11c-.34,0-.51.16-.51.49v2.55c0,.32.35.39.76.27l.45-.18c.42-.16.86-.33.94.08v1.24a.93.93,0,0,1-.6.9,10.07,10.07,0,0,0-1,.47.71.71,0,0,0-.51.7v5a3.25,3.25,0,0,1-.62,2,3.9,3.9,0,0,1-3.17.49.86.86,0,0,1-.72-.76,10.47,10.47,0,0,1-.19-1.12c-.08-.47.11-.63.58-.5l.76.13c.61.16,1.06-.08,1.08-.72v-3.8c0-.33-.32-.43-.73-.31a3.38,3.38,0,0,0-.62.18.72.72,0,0,1-1-.41l-.33-1.05a.59.59,0,0,1,.2-.81.63.63,0,0,1,.23-.08l1.74-.28a.69.69,0,0,0,.49-.68V23.62a.53.53,0,0,0-.53-.53h-1.48a.55.55,0,0,1-.63-.46.43.43,0,0,1,0-.16v-1c0-.43.2-.64.61-.64h1.37c.34,0,.51-.16.51-.49Zm9.21,0c0-.44.19-.65.57-.65h1.17c.43,0,.64.2.64.61v1.42c0,.34.16.51.49.51h3.44c.43,0,.64.2.64.61v1c0,.42-.2.64-.61.64h-3.45c-.34,0-.51.16-.51.49v1.64c0,.34.16.51.49.51h2.73a.55.55,0,0,1,.63.46.43.43,0,0,1,0,.16,2.78,2.78,0,0,1-.16,1.51,16.84,16.84,0,0,1-2.46,4.45c-.3.35-.26.67.14,1a12.15,12.15,0,0,0,2.65,1.44.54.54,0,0,1,.4.65.51.51,0,0,1-.1.21l-.53,1.07c-.23.45-.53.61-.9.47A13.82,13.82,0,0,1,159.9,35a.78.78,0,0,0-1.1,0,15.06,15.06,0,0,1-3.86,2,.83.83,0,0,1-1.11-.39h0l-.49-.92c-.23-.44-.09-.73.41-.86a14.6,14.6,0,0,0,3.54-1.75c.32-.23.3-.56,0-1a18.09,18.09,0,0,1-2-3.73.69.69,0,0,0-.68-.49c-.32,0-.49-.21-.49-.62v-.92a.56.56,0,0,1,.47-.64.38.38,0,0,1,.15,0h2.75c.34,0,.51-.16.51-.49V23.58a.44.44,0,0,0-.36-.51.57.57,0,0,0-.13,0h-2.93a.56.56,0,0,1-.64-.47.38.38,0,0,1,0-.15V21.4a.55.55,0,0,1,.46-.63h3.09a.44.44,0,0,0,.51-.36.57.57,0,0,0,0-.13Zm3.32,9.54c.15-.36.07-.53-.25-.53H158c-.34,0-.42.21-.23.63a8.84,8.84,0,0,0,1.31,2.16c.28.35.59.31.93-.1A11.4,11.4,0,0,0,161.36,28.42Z"/><path class="cls-1" d="M64.09,33.49A1.86,1.86,0,1,0,66,35.35h0A1.86,1.86,0,0,0,64.09,33.49Z"/><path class="cls-1" d="M118.29,33.49a1.86,1.86,0,1,0,1.86,1.86,1.86,1.86,0,0,0-1.86-1.86Z"/></svg>