<svg id="圖層_1" data-name="圖層 1" xmlns="http://www.w3.org/2000/svg" viewBox="0 0 181.42 53.5"><defs><style>.cls-1{fill:#fff;}.cls-2{fill:#d60c18;}</style></defs><path class="cls-1" d="M37.19,22.69v.8h-.08a1.69,1.69,0,0,0-.15-.4.65.65,0,0,0-.24-.19.85.85,0,0,0-.29,0h-.22v2.28a.78.78,0,0,0,0,.28l.1.1a.37.37,0,0,0,.2,0h.09v.08H35.09v-.08h.1a.4.4,0,0,0,.2,0l.09-.11a.67.67,0,0,0,0-.27V22.86h-.22a.65.65,0,0,0-.43.13.84.84,0,0,0-.24.5h-.08v-.8Z"/><path class="cls-1" d="M38.29,25.34a1.07,1.07,0,0,1-.67.33.38.38,0,0,1-.4-.4.58.58,0,0,1,.2-.42,3.61,3.61,0,0,1,.87-.49v-.21a1.48,1.48,0,0,0,0-.29l-.1-.1a.27.27,0,0,0-.15-.05.36.36,0,0,0-.24.07l-.05.09.06.11a.29.29,0,0,1,.08.18.25.25,0,0,1-.08.18.29.29,0,0,1-.21.08.36.36,0,0,1-.23-.08.27.27,0,0,1-.09-.2.48.48,0,0,1,.12-.3.88.88,0,0,1,.35-.22,1.43,1.43,0,0,1,.46-.07.78.78,0,0,1,.46.12.61.61,0,0,1,.22.27,1.74,1.74,0,0,1,0,.42v.79a.63.63,0,0,0,0,.17l0,.06H39a.17.17,0,0,0,.12-.08l.06.05a.87.87,0,0,1-.22.24.5.5,0,0,1-.27.07.34.34,0,0,1-.39-.33m0-.16V24.5a1.68,1.68,0,0,0-.39.33.38.38,0,0,0-.08.24.24.24,0,0,0,.07.18.18.18,0,0,0,.15.06.43.43,0,0,0,.25-.13"/><path class="cls-1" d="M40.27,23.61v1.61a.46.46,0,0,0,0,.28.26.26,0,0,0,.19.06v.08h-1.1v-.08a.28.28,0,0,0,.2-.07.5.5,0,0,0,0-.27V24a.5.5,0,0,0,0-.27.27.27,0,0,0-.2-.07v-.08Zm-.31-1a.33.33,0,0,1,.24.1.34.34,0,0,1,0,.48.34.34,0,0,1-.48,0,.37.37,0,0,1,0-.48.37.37,0,0,1,.24-.1"/><path class="cls-1" d="M42.8,25.7l-.56-1.49L41.7,25.7h-.11L41,24.23a1.89,1.89,0,0,0-.2-.44.29.29,0,0,0-.17-.1v-.08h1v.08a.22.22,0,0,0-.14,0l0,.07a.9.9,0,0,0,.07.22l.29.79.29-.79,0-.05a.48.48,0,0,0-.12-.21.26.26,0,0,0-.15-.06v-.08h1v.08c-.09,0-.14,0-.16,0l0,.08a.88.88,0,0,0,.06.21l.29.79.26-.73a.69.69,0,0,0,.06-.21.14.14,0,0,0,0-.12.2.2,0,0,0-.16,0v-.08h.61v.08a.26.26,0,0,0-.16.07,1,1,0,0,0-.15.33l-.57,1.61Z"/><path class="cls-1" d="M45.2,25.34a1.1,1.1,0,0,1-.67.33.42.42,0,0,1-.29-.11.4.4,0,0,1-.12-.29.58.58,0,0,1,.2-.42,4,4,0,0,1,.88-.49v-.21a.85.85,0,0,0,0-.29l-.09-.1a.3.3,0,0,0-.16-.05.35.35,0,0,0-.23.07l-.06.09.06.11a.24.24,0,0,1,.08.18.22.22,0,0,1-.08.18.28.28,0,0,1-.2.08.36.36,0,0,1-.23-.08.28.28,0,0,1-.1-.2.5.5,0,0,1,.13-.3.84.84,0,0,1,.34-.22,1.49,1.49,0,0,1,.47-.07.75.75,0,0,1,.45.12.5.5,0,0,1,.22.27,1.74,1.74,0,0,1,0,.42v.79c0,.09,0,.15,0,.17l0,.06h0s.07,0,.11-.08l.07.05a.89.89,0,0,1-.23.24.46.46,0,0,1-.26.07.41.41,0,0,1-.27-.08.35.35,0,0,1-.12-.25m0-.16V24.5a1.56,1.56,0,0,0-.4.33.46.46,0,0,0-.08.24.24.24,0,0,0,.07.18.2.2,0,0,0,.15.06.45.45,0,0,0,.26-.13"/><path class="cls-1" d="M47.21,23.61v.26a1.33,1.33,0,0,1,.3-.25.64.64,0,0,1,.31-.07.43.43,0,0,1,.32.11.5.5,0,0,1,.18.27,2.42,2.42,0,0,1,0,.48v.79a.57.57,0,0,0,0,.29s.08.06.17.07v.08h-1v-.08a.22.22,0,0,0,.17-.09.75.75,0,0,0,0-.27v-.91a1.07,1.07,0,0,0,0-.31l-.06-.1-.11,0c-.12,0-.24.09-.34.27V25.2a.6.6,0,0,0,0,.29.22.22,0,0,0,.16.07v.08h-1v-.08a.25.25,0,0,0,.18-.08.53.53,0,0,0,0-.28V24.05a.77.77,0,0,0,0-.29.3.3,0,0,0-.18-.07v-.08Z"/><path class="cls-1" d="M49.12,23.9,49,23.25a3.12,3.12,0,0,1,0-.36.28.28,0,0,1,.06-.2.21.21,0,0,1,.16-.06.25.25,0,0,1,.16.06.24.24,0,0,1,.06.17c0,.05,0,.18,0,.39l-.12.65Z"/><path class="cls-1" d="M51.09,23.55l0,.7h-.07a1.22,1.22,0,0,0-.27-.43.5.5,0,0,0-.29-.11.2.2,0,0,0-.15.06.2.2,0,0,0-.06.14l0,.11a2.64,2.64,0,0,0,.39.31,1.46,1.46,0,0,1,.42.37.56.56,0,0,1,.1.33.81.81,0,0,1-.08.34.72.72,0,0,1-.24.25.81.81,0,0,1-.34.08,1.17,1.17,0,0,1-.39-.09l-.09,0c-.05,0-.09,0-.12.11H49.9l0-.73h.07a1.06,1.06,0,0,0,.27.43.55.55,0,0,0,.33.14.25.25,0,0,0,.17-.06.25.25,0,0,0,.06-.16.28.28,0,0,0-.06-.18,1.9,1.9,0,0,0-.29-.23,1.83,1.83,0,0,1-.43-.35.6.6,0,0,1-.15-.4.67.67,0,0,1,.16-.42.58.58,0,0,1,.47-.19.61.61,0,0,1,.32.08l.1,0,.06,0s0,0,.08-.09Z"/><path class="cls-1" d="M55.16,24.61l-.11,1H52.43v-.08h.1a.4.4,0,0,0,.2,0l.09-.11a.67.67,0,0,0,0-.27V23.2a.85.85,0,0,0,0-.29l-.1-.09a.33.33,0,0,0-.19-.05h-.1v-.08H54v.08h-.13a.39.39,0,0,0-.2.05.18.18,0,0,0-.09.1.78.78,0,0,0,0,.28v1.88a.78.78,0,0,0,0,.28.17.17,0,0,0,.1.1,1.31,1.31,0,0,0,.27,0h.24a.75.75,0,0,0,.39-.09.61.61,0,0,0,.27-.26,2,2,0,0,0,.22-.52Z"/><path class="cls-1" d="M57.27,24.55H56.15a1,1,0,0,0,.22.64.45.45,0,0,0,.36.18A.39.39,0,0,0,57,25.3a.86.86,0,0,0,.23-.26l.08.05a1.24,1.24,0,0,1-.37.47.74.74,0,0,1-.46.14.77.77,0,0,1-.69-.35,1.22,1.22,0,0,1-.18-.69,1.17,1.17,0,0,1,.27-.81.85.85,0,0,1,.65-.3.69.69,0,0,1,.53.25,1.22,1.22,0,0,1,.25.75m-.54-.14a1.69,1.69,0,0,0,0-.48.31.31,0,0,0-.12-.2.16.16,0,0,0-.12,0,.22.22,0,0,0-.18.11.93.93,0,0,0-.13.53v.08Z"/><path class="cls-1" d="M58.72,25.34a1.07,1.07,0,0,1-.67.33.42.42,0,0,1-.29-.11.39.39,0,0,1-.11-.29.54.54,0,0,1,.2-.42,3.61,3.61,0,0,1,.87-.49v-.21a.85.85,0,0,0,0-.29l-.09-.1a.3.3,0,0,0-.16-.05.35.35,0,0,0-.23.07l-.06.09.06.11a.26.26,0,0,1,.09.18.25.25,0,0,1-.08.18.3.3,0,0,1-.21.08.36.36,0,0,1-.23-.08.27.27,0,0,1-.09-.2.48.48,0,0,1,.12-.3.81.81,0,0,1,.35-.22,1.43,1.43,0,0,1,.46-.07.81.81,0,0,1,.46.12.53.53,0,0,1,.21.27,1.23,1.23,0,0,1,0,.42v.79a.63.63,0,0,0,0,.17l0,.06h.05a.14.14,0,0,0,.11-.08l.07.05a.76.76,0,0,1-.23.24.44.44,0,0,1-.26.07.41.41,0,0,1-.27-.08.35.35,0,0,1-.12-.25m0-.16V24.5a1.34,1.34,0,0,0-.39.33.4.4,0,0,0-.09.24.29.29,0,0,0,.07.18.21.21,0,0,0,.16.06.46.46,0,0,0,.25-.13"/><path class="cls-1" d="M61.87,22.69V25c0,.16,0,.25,0,.28l.07.11a.32.32,0,0,0,.17,0v.08l-.86.16v-.32a1.06,1.06,0,0,1-.27.26.61.61,0,0,1-.28.06.69.69,0,0,1-.61-.35,1.22,1.22,0,0,1-.18-.69,1.41,1.41,0,0,1,.11-.59,1,1,0,0,1,.31-.39.72.72,0,0,1,.42-.13.67.67,0,0,1,.26.05.85.85,0,0,1,.24.2v-.61a.8.8,0,0,0,0-.28l-.08-.1a.41.41,0,0,0-.19,0v-.09Zm-.61,1.38a.47.47,0,0,0-.39-.31.19.19,0,0,0-.13,0,.45.45,0,0,0-.14.23,2.21,2.21,0,0,0-.05.52,2,2,0,0,0,.06.57.56.56,0,0,0,.15.27.21.21,0,0,0,.14,0q.2,0,.36-.3Z"/><path class="cls-1" d="M63.24,23.61v1.61a.46.46,0,0,0,0,.28.28.28,0,0,0,.19.06v.08h-1.1v-.08a.28.28,0,0,0,.2-.07.5.5,0,0,0,.05-.27V24a.5.5,0,0,0-.05-.27.27.27,0,0,0-.2-.07v-.08Zm-.31-1a.33.33,0,0,1,.24.1.34.34,0,0,1,0,.48.35.35,0,0,1-.24.1.34.34,0,0,1,0-.68"/><path class="cls-1" d="M64.59,23.61v.26a1.33,1.33,0,0,1,.3-.25.64.64,0,0,1,.31-.07.43.43,0,0,1,.32.11.5.5,0,0,1,.18.27,2.42,2.42,0,0,1,0,.48v.79a.57.57,0,0,0,0,.29s.08.06.17.07v.08h-1v-.08a.22.22,0,0,0,.17-.09.75.75,0,0,0,0-.27v-.91a1.07,1.07,0,0,0,0-.31l-.06-.1-.1,0c-.13,0-.25.09-.35.27V25.2a.6.6,0,0,0,0,.29.22.22,0,0,0,.16.07v.08h-1v-.08a.25.25,0,0,0,.18-.08.53.53,0,0,0,0-.28V24.05a.77.77,0,0,0,0-.29.3.3,0,0,0-.18-.07v-.08Z"/><path class="cls-1" d="M67.61,23.63h.68v.24h-.38a.56.56,0,0,1,.14.2.5.5,0,0,1,.06.24.57.57,0,0,1-.13.38.81.81,0,0,1-.32.25,1,1,0,0,1-.37.09H67a.25.25,0,0,0-.17.06.23.23,0,0,0-.06.16.14.14,0,0,0,.06.12.26.26,0,0,0,.19.05h.38a1.36,1.36,0,0,1,.63.1.46.46,0,0,1,.24.43.57.57,0,0,1-.11.33.76.76,0,0,1-.3.23,1.85,1.85,0,0,1-.65.1,2,2,0,0,1-.5-.05.8.8,0,0,1-.32-.15.26.26,0,0,1-.1-.2A.29.29,0,0,1,66.4,26a.66.66,0,0,1,.28-.13.43.43,0,0,1-.29-.39.46.46,0,0,1,.12-.29,1,1,0,0,1,.36-.24,1.06,1.06,0,0,1-.42-.28.71.71,0,0,1-.13-.41.63.63,0,0,1,.25-.51.87.87,0,0,1,.62-.22,1.25,1.25,0,0,1,.42.08m-.5,2.31a.68.68,0,0,0-.3,0,.19.19,0,0,0-.12.18.23.23,0,0,0,.13.2.87.87,0,0,0,.48.09,1,1,0,0,0,.47-.08.25.25,0,0,0,.18-.22l0-.09a.22.22,0,0,0-.17-.09,3.72,3.72,0,0,0-.63,0m.12-2.26a.25.25,0,0,0-.21.13,1,1,0,0,0-.09.53.78.78,0,0,0,.09.44.24.24,0,0,0,.2.12.26.26,0,0,0,.22-.12.81.81,0,0,0,.09-.46,1,1,0,0,0-.1-.53.23.23,0,0,0-.2-.11"/><path class="cls-1" d="M71.68,24.64l.81-1.95h1.2v.08h-.1a.41.41,0,0,0-.21.05l-.09.1a1.31,1.31,0,0,0,0,.27v1.95a1.35,1.35,0,0,0,0,.28.24.24,0,0,0,.1.1.4.4,0,0,0,.2,0h.1v.08H72.15v-.08h.09a.41.41,0,0,0,.21,0l.09-.11a1.16,1.16,0,0,0,0-.27V23l-1.13,2.69h-.05L70.23,23v2.08a1.64,1.64,0,0,0,0,.27.3.3,0,0,0,.12.17.51.51,0,0,0,.3.07v.08h-1v-.08h0a.48.48,0,0,0,.18,0,.25.25,0,0,0,.13-.09.48.48,0,0,0,.07-.16V23.19a.87.87,0,0,0,0-.28.22.22,0,0,0-.1-.09.37.37,0,0,0-.2-.05h-.09v-.08h1.21Z"/><path class="cls-1" d="M75.11,25.34a1.05,1.05,0,0,1-.66.33.39.39,0,0,1-.41-.4.58.58,0,0,1,.2-.42,4.08,4.08,0,0,1,.87-.49v-.21a1,1,0,0,0,0-.29l-.1-.1a.25.25,0,0,0-.15-.05.33.33,0,0,0-.23.07l-.06.09.06.11a.29.29,0,0,1,.08.18.22.22,0,0,1-.08.18.28.28,0,0,1-.2.08.34.34,0,0,1-.23-.08.25.25,0,0,1-.1-.2.44.44,0,0,1,.13-.3.84.84,0,0,1,.34-.22,1.43,1.43,0,0,1,.46-.07.76.76,0,0,1,.46.12.55.55,0,0,1,.22.27,1.74,1.74,0,0,1,0,.42v.79a.63.63,0,0,0,0,.17l0,.06h0a.17.17,0,0,0,.12-.08l.06.05a.74.74,0,0,1-.22.24.48.48,0,0,1-.26.07.47.47,0,0,1-.28-.08.45.45,0,0,1-.12-.25m0-.16V24.5a1.68,1.68,0,0,0-.39.33.46.46,0,0,0-.08.24.24.24,0,0,0,.07.18.2.2,0,0,0,.15.06.43.43,0,0,0,.25-.13"/><path class="cls-1" d="M77.6,23.63h.68v.24H77.9a.56.56,0,0,1,.14.2.5.5,0,0,1,.06.24.57.57,0,0,1-.13.38.89.89,0,0,1-.32.25,1,1,0,0,1-.37.09H77a.25.25,0,0,0-.17.06.23.23,0,0,0-.06.16.14.14,0,0,0,.06.12.26.26,0,0,0,.19.05h.38a1.36,1.36,0,0,1,.63.1.46.46,0,0,1,.24.43.57.57,0,0,1-.11.33.76.76,0,0,1-.3.23,1.85,1.85,0,0,1-.65.1,2,2,0,0,1-.5-.05.8.8,0,0,1-.32-.15.26.26,0,0,1-.1-.2.29.29,0,0,1,.08-.18.66.66,0,0,1,.28-.13.43.43,0,0,1-.29-.39.46.46,0,0,1,.12-.29,1,1,0,0,1,.36-.24,1.06,1.06,0,0,1-.42-.28.71.71,0,0,1-.13-.41.63.63,0,0,1,.25-.51.87.87,0,0,1,.62-.22,1.25,1.25,0,0,1,.42.08m-.51,2.31a.66.66,0,0,0-.29,0,.19.19,0,0,0-.12.18.23.23,0,0,0,.13.2.87.87,0,0,0,.48.09,1,1,0,0,0,.47-.08.25.25,0,0,0,.18-.22l0-.09a.24.24,0,0,0-.17-.09,3.79,3.79,0,0,0-.64,0m.13-2.26a.25.25,0,0,0-.21.13,1,1,0,0,0-.09.53.78.78,0,0,0,.09.44.24.24,0,0,0,.2.12.26.26,0,0,0,.22-.12.81.81,0,0,0,.09-.46,1,1,0,0,0-.1-.53.23.23,0,0,0-.2-.11"/><path class="cls-1" d="M79.72,25.34a1.07,1.07,0,0,1-.67.33.38.38,0,0,1-.4-.4.54.54,0,0,1,.2-.42,3.61,3.61,0,0,1,.87-.49v-.21a.85.85,0,0,0,0-.29l-.09-.1a.3.3,0,0,0-.16-.05.35.35,0,0,0-.23.07l-.06.09.06.11a.26.26,0,0,1,.09.18.25.25,0,0,1-.08.18.29.29,0,0,1-.21.08.36.36,0,0,1-.23-.08.27.27,0,0,1-.09-.2.48.48,0,0,1,.12-.3.88.88,0,0,1,.35-.22,1.43,1.43,0,0,1,.46-.07.81.81,0,0,1,.46.12.61.61,0,0,1,.22.27,1.74,1.74,0,0,1,0,.42v.79a.63.63,0,0,0,0,.17l0,.06h0a.17.17,0,0,0,.12-.08l.06.05a.87.87,0,0,1-.22.24.5.5,0,0,1-.27.07.41.41,0,0,1-.27-.08.35.35,0,0,1-.12-.25m0-.16V24.5a1.34,1.34,0,0,0-.39.33.4.4,0,0,0-.09.24.25.25,0,0,0,.08.18.18.18,0,0,0,.15.06.46.46,0,0,0,.25-.13"/><path class="cls-1" d="M82.57,25.64H80.8v-.05l1.11-1.85h-.32a.83.83,0,0,0-.31,0,.28.28,0,0,0-.14.12,1.14,1.14,0,0,0-.12.3h-.08v-.59h1.71v.06l-1.1,1.83h.14a1.17,1.17,0,0,0,.6-.12.79.79,0,0,0,.28-.43h.06Z"/><path class="cls-1" d="M83.75,23.61v1.61a.46.46,0,0,0,0,.28.28.28,0,0,0,.19.06v.08h-1.1v-.08a.28.28,0,0,0,.2-.07.5.5,0,0,0,0-.27V24a.5.5,0,0,0,0-.27.27.27,0,0,0-.2-.07v-.08Zm-.31-1a.33.33,0,0,1,.24.1.34.34,0,0,1,0,.48.37.37,0,0,1-.24.1.34.34,0,0,1,0-.68"/><path class="cls-1" d="M85.1,23.61v.26a1.33,1.33,0,0,1,.3-.25.64.64,0,0,1,.31-.07.43.43,0,0,1,.32.11.5.5,0,0,1,.18.27,2.42,2.42,0,0,1,0,.48v.79a.57.57,0,0,0,.05.29s.08.06.17.07v.08h-1v-.08a.22.22,0,0,0,.17-.09.75.75,0,0,0,0-.27v-.91a1.07,1.07,0,0,0,0-.31l-.06-.1-.11,0c-.12,0-.24.09-.34.27V25.2a.6.6,0,0,0,0,.29.22.22,0,0,0,.16.07v.08h-1v-.08a.25.25,0,0,0,.18-.08.53.53,0,0,0,0-.28V24.05a.77.77,0,0,0,0-.29.3.3,0,0,0-.18-.07v-.08Z"/><path class="cls-1" d="M88.54,24.55H87.42a1,1,0,0,0,.22.64.45.45,0,0,0,.36.18.39.39,0,0,0,.23-.07.86.86,0,0,0,.23-.26l.08.05a1.24,1.24,0,0,1-.37.47.74.74,0,0,1-.46.14.77.77,0,0,1-.69-.35,1.22,1.22,0,0,1-.18-.69,1.17,1.17,0,0,1,.27-.81.85.85,0,0,1,.65-.3.69.69,0,0,1,.53.25,1.16,1.16,0,0,1,.25.75M88,24.41a1.69,1.69,0,0,0,0-.48.35.35,0,0,0-.11-.2.2.2,0,0,0-.13,0,.22.22,0,0,0-.18.11.93.93,0,0,0-.13.53v.08Z"/><rect class="cls-2" x="34.57" y="1.49" width="53.93" height="19.34"/><path class="cls-1" d="M48.21,3.78a.91.91,0,0,1-.32,1c-.8.39-1.65.65-2.42,1.08C44,6.11,42.53,6.64,41.06,7a1.5,1.5,0,0,1-1.49-.54c.08-.35-.42-.6-.06-.91a13.54,13.54,0,0,1,1.94-.22,4.53,4.53,0,0,1,2.5-.8c.15-.22.41-.19.58-.32.4-.32.94-.44,1.26-.85a2.06,2.06,0,0,1,1.64-.23c.27.19.66.29.78.65"/><path class="cls-1" d="M59.21,8.9a1.17,1.17,0,0,0,0-.9c0-.17.08-.3-.09-.38-.32-.23-.62.13-.94.18-.43.22-.74.75-1.25.88a5.29,5.29,0,0,1-1.45,1,3.15,3.15,0,0,1-1.9-.11c-.15-.25-.46-.12-.65-.28-.45-.29-1.06-.29-1.38-.8-.2-.36-.79-.36-.68-.87a1.38,1.38,0,0,1,.75-.33,19.2,19.2,0,0,0,2.83-.35c.51-.13,1-.25,1.54-.42.19-.21.59-.08.74-.38a5.17,5.17,0,0,1,1-.16c.28-.23.69-.1,1-.36.55,0,1-.37,1.55-.33.42-.42,1.1-.25,1.61-.48.75-.23,1.57-.8,2.41-.35h.35c.58.15,1.33.15,1.61.74a2.11,2.11,0,0,1-.39,1.06,1.93,1.93,0,0,1-2,.07,2.63,2.63,0,0,0-2.18,0c-.19.22-.51.22-.62.53a3.35,3.35,0,0,0,.07,1c.25.54-.08,1.08.16,1.61A15,15,0,0,1,61.5,12a23.88,23.88,0,0,0,.29,3.7c.08.42.24.87.29,1.36.26.29,0,.68.19,1-.28.71,0,1.73-.83,2.09a1.74,1.74,0,0,1-1.75.2c-.36-.12-.45-.51-.7-.71,0-.47-.33-.91-.16-1.45a64.28,64.28,0,0,0,.38-9.08"/><path class="cls-1" d="M44.21,7.43a3.44,3.44,0,0,1,.55,1c.28.31.6,0,.9-.07a2.55,2.55,0,0,1,2-1.06c.35.14.79.12,1,.49a.79.79,0,0,1,0,.73c-.3.63-1.07.86-1.61,1.27-.43.22-1,.38-1.22.87a2.67,2.67,0,0,0,1.09,1.82c.74.77,1.42,1.93,2.41,2.39.54.31,1,.92,1.66,1.1.14.15.42.2.57.37.31,0,.44.49.81.37a5.3,5.3,0,0,0,2,1c.19.13.45.24.55.42s.35.3.49.48-.11.37-.17.55c-.37.36-1,.21-1.38.46a19.05,19.05,0,0,1-4.13.12l-1.47-1.13c-.94-1.15-1.66-2.43-2.58-3.6-.11-.26-.5-.37-.62-.68-.45-.3-.62-.85-1.22-.9a2.07,2.07,0,0,0-.32,1.15c-.15.33-.09.8-.28,1.13s-.12.56-.33.78c0,.27-.21.35-.22.62a7.73,7.73,0,0,1-2.16,2.63c-.75.14-1.43.71-2.23.26a1.28,1.28,0,0,1-1.09-.8c.11-.24-.2-.32-.2-.52s-.29-.63.14-.84a.55.55,0,0,1,.34-.41,1.13,1.13,0,0,1,1.11.25c.14,0,.24-.08.34-.13,0-.2.34-.23.33-.44A2.67,2.67,0,0,0,40,15.92,2,2,0,0,0,40.37,14c-.49,0-1,.21-1.54,0-.35-.26-.86-.39-1-.78a1.68,1.68,0,0,1-.49-.94c.15-.4.71-.28,1-.35s.64-.15.94-.29c.75-.15,1.19-.82,2-.93.45-.28,1.08-.68,1-1.33s.13-1,.06-1.54a1,1,0,0,1,.54-.55c.29-.08.61,0,.9-.09.11.17.33.09.46.2"/><path class="cls-1" d="M67.65,11.25c.62.67,1.29,1.49.87,2.48,0,.34-.52.22-.55.58a4.1,4.1,0,0,1-2-.12c0-.24-.18-.32-.38-.46a2.59,2.59,0,0,1-1-2.67c.78-.63,1.85-.05,2.74,0a.75.75,0,0,0,.39.19"/><path class="cls-1" d="M78.29,14.16c0,.05,0,.11-.1.13l-1.16,0,0,0c0,.33,0,.68,0,1l0,0h1l.08.09,0,.1-.09,0H77l-.07,0v1c0,.07.08.06.12.07h1l.08.09s0,.1-.06.11c-.35,0-.71,0-1.06,0l0,.05,0,1a.42.42,0,0,0,.27,0,4.71,4.71,0,0,1,1,0l0,.14-.06,0c-1,0-1.94,0-2.91,0a.53.53,0,0,1-.43-.24,5.62,5.62,0,0,1-.05-.92V14.71c-.16.14-.26.37-.46.48a.3.3,0,0,1-.19,0,.18.18,0,0,1,0-.16A5.46,5.46,0,0,0,75,13.09c.08-.14.25-.14.4-.11a.25.25,0,0,1,.21.18v.12a4.15,4.15,0,0,0-.38.76v0h1.08a1.86,1.86,0,0,1,.31-.57c.12-.17.18-.48.45-.49a.44.44,0,0,1,.36.15.29.29,0,0,1-.11.28,4.68,4.68,0,0,0-.56.62l0,0,1.4,0"/><path class="cls-1" d="M79.28,14.21s.07-.11.14-.12c1,0,1.68,0,2.69,0,.11-.07.26,0,.4-.06h1.31c.11-.07,0-.23.07-.34s-.12-.59.18-.66.36,0,.44.14v.81l0,0c.58,0,1.13,0,1.68,0l.07.07c0,.06,0,.13-.06.14-.53,0-1.1,0-1.65,0l0,0,0,.05c0,.37,0,.69,0,1.07l0,0,1.38,0s.11.09.07.16l-.07.07-1.39,0H82.44s-.11-.07-.09-.15a.15.15,0,0,1,.14-.09h1.29c.15,0,0-.25.09-.35V14.3l-.06-.05c-.54,0-1,0-1.59,0l-.09,0a.23.23,0,0,1-.16.1l-2.46,0a.8.8,0,0,1-.15,0"/><path class="cls-1" d="M73.24,13.1c0,.21,0,.45,0,.67l.06.05c.36,0,.72,0,1.06,0,.05,0,.05.08,0,.14l-.11.07-2.17,0h-.87L71.17,14c0-.05,0-.12.07-.13.41,0,.88,0,1.31,0l.08-.08c.06-.25-.17-.72.23-.77.13,0,.3,0,.38.13"/><path class="cls-1" d="M81.86,13.27l.08.05a.13.13,0,0,1-.06.17l-.2,0h-2l-.1-.09.05-.13a4,4,0,0,1,.78,0c.46,0,1,0,1.43,0"/><path class="cls-1" d="M72.52,14.16a.21.21,0,0,1,.08.23c0,.19-.35.37-.14.58s.32.36.38.54l0,.09a.19.19,0,0,1-.23.07c-.16-.13-.28-.3-.45-.43a.17.17,0,0,0-.12.11c-.19.22-.35.53-.61.64-.07,0-.14,0-.17-.11v-.09a8.82,8.82,0,0,0,.87-1.59.33.33,0,0,1,.41,0"/><path class="cls-1" d="M74.08,14.37c0,.2-.15.36-.23.54a3.63,3.63,0,0,0,.39.79l0,.14a.24.24,0,0,1-.22,0c-.15-.11-.27-.33-.42-.47-.18.1-.21.49-.5.34a.16.16,0,0,1-.06-.19,3.91,3.91,0,0,0,.51-1.23.32.32,0,0,1,.21-.13c.13,0,.29,0,.35.17"/><path class="cls-2" d="M76.39,14.4c0,.33,0,.7,0,1a4.48,4.48,0,0,1-.9,0l0,0v-1c0-.11.12-.05.18-.07.24,0,.51,0,.73,0Z"/><path class="cls-1" d="M81.84,14.92S82,15,82,15a.17.17,0,0,1-.1.14H79.71l-.11-.08a.16.16,0,0,1,.1-.18h2.14Z"/><path class="cls-1" d="M81.81,15.74l.1.09,0,.11a.17.17,0,0,1-.16.05H79.67a.14.14,0,0,1-.06-.17c0-.05.1-.05.16-.07h2"/><path class="cls-2" d="M76.37,15.68v1.08a6.76,6.76,0,0,1-.9,0l0,0v-1l.09,0a5.79,5.79,0,0,1,.84,0"/><path class="cls-1" d="M73.17,15.84c.16.17,0,.35.09.56l.11,0h1s.1,0,.11.09a.15.15,0,0,1-.1.15l-1,0c-.07,0,0,.07,0,.11a3.92,3.92,0,0,0,1,.84.17.17,0,0,1-.09.19h-.17a7.84,7.84,0,0,1-1-.68l0,0a7.78,7.78,0,0,1,0,1.29.4.4,0,0,1-.41.15.25.25,0,0,1-.19-.15l0-.12a5.93,5.93,0,0,1,.08-1.26c-.08-.07-.09.08-.16.12l-.07.08a4.61,4.61,0,0,1-.58.59c0,.06-.08.06-.1.1s-.32.37-.56.24l0-.12c0-.08.12-.13.18-.18a4.69,4.69,0,0,0,1-1.17l0,0c-.37,0-.73,0-1.11,0a.13.13,0,0,1,0-.17l.08,0h1.29l.09-.06c0-.2-.1-.49.14-.58a.45.45,0,0,1,.41.05"/><path class="cls-1" d="M83.63,16c.13.12,0,.31.06.47,0,.59,0,1.08,0,1.64a.25.25,0,0,0,.16.1h.86a.67.67,0,0,0,.43-.55.35.35,0,0,1,.25-.17.42.42,0,0,1,.36.16.75.75,0,0,1-.33.68,5.67,5.67,0,0,1-1.85.11.49.49,0,0,1-.45-.27l0-.1c0-.63,0-1.35,0-2,0-.1.12-.13.2-.16a.41.41,0,0,1,.29.07"/><path class="cls-1" d="M84.66,16.34a3.31,3.31,0,0,1,.43.69.26.26,0,0,1,0,.2.48.48,0,0,1-.35.1c-.35,0-.23-.47-.4-.68s-.29-.36-.25-.6a.28.28,0,0,1,.29-.07,1.91,1.91,0,0,1,.33.36"/><path class="cls-1" d="M85.91,16.56c.18.22.37.44.53.67a.23.23,0,0,1,0,.24.44.44,0,0,1-.41.1c-.19-.1-.2-.32-.27-.49a5.87,5.87,0,0,0-.43-.67.17.17,0,0,1,0-.17.31.31,0,0,1,.23,0c.15.07.24.25.36.35"/><path class="cls-1" d="M82.66,16.43a3.62,3.62,0,0,1-.09.87c-.09.26,0,.63-.35.73a1,1,0,0,1-.34,0,.4.4,0,0,1-.22.35l-.23.08a13.07,13.07,0,0,1-1.54,0,.52.52,0,0,1-.27-.17l0-.11,0-1.32a.47.47,0,0,1,.19-.27,1.05,1.05,0,0,1,.53-.07h1.17c.59.07.28.73.38,1.11l.1-.09a3.2,3.2,0,0,0,.29-1c0-.1.13-.09.2-.12a.29.29,0,0,1,.2.11"/><path class="cls-2" d="M81.26,16.76v1.38l0,0h-1l0,0c0-.45,0-.95,0-1.38l.1-.05h.94Z"/><path class="cls-2" d="M76.36,17.05l0,0c0,.35,0,.69,0,1l0,0h-.88l0,0c0-.34,0-.68,0-1l0-.05a6.05,6.05,0,0,1,.87,0"/><rect class="cls-1" x="34.56" y="8.96" width="6.81" height="0.29"/><rect class="cls-1" x="48.74" y="8.96" width="3.02" height="0.29"/><rect class="cls-1" x="57.2" y="8.96" width="1.95" height="0.29"/><rect class="cls-1" x="61.56" y="9.02" width="26.94" height="0.29"/><rect class="cls-1" x="34.57" y="14.33" width="4.45" height="0.29"/><rect class="cls-1" x="43.71" y="14.33" width="1.14" height="0.29"/><rect class="cls-1" x="49.15" y="14.33" width="9.46" height="0.29"/><rect class="cls-1" x="62.03" y="14.33" width="3.82" height="0.29"/><rect class="cls-1" x="68.4" y="14.33" width="2.21" height="0.29"/><rect class="cls-1" x="86.65" y="14.33" width="1.86" height="0.29"/><rect class="cls-1" x="34.57" y="16.47" width="4.52" height="0.29"/><rect class="cls-1" x="43.18" y="16.47" width="3.02" height="0.29"/><rect class="cls-1" x="52.7" y="16.47" width="5.77" height="0.29"/><rect class="cls-1" x="62.36" y="16.47" width="8.25" height="0.29"/><rect class="cls-1" x="86.65" y="16.47" width="1.86" height="0.29"/><rect class="cls-1" x="34.57" y="17.61" width="2.04" height="0.29"/><rect class="cls-1" x="42.64" y="17.61" width="4.36" height="0.29"/><rect class="cls-1" x="55.05" y="17.61" width="3.22" height="0.29"/><rect class="cls-1" x="62.7" y="17.61" width="7.98" height="0.29"/><rect class="cls-1" x="86.51" y="17.61" width="1.99" height="0.29"/><rect class="cls-1" x="34.57" y="19.56" width="2.1" height="0.29"/><rect class="cls-1" x="41.23" y="19.56" width="7.45" height="0.29"/><rect class="cls-1" x="55.45" y="19.56" width="2.95" height="0.29"/><rect class="cls-1" x="62.56" y="19.56" width="25.94" height="0.29"/><path class="cls-1" d="M98.87,19.47h0v0h1.76v-.3H98.81v0a.62.62,0,0,1,0-.13v-.85h1.63v-.3H96.92v.3H98.5v1H96.73v.3h1.74a2.29,2.29,0,0,1-1,1.55,3.75,3.75,0,0,1-.87.46h0l.18.25h0a3.23,3.23,0,0,0,1.92-1.86,3.29,3.29,0,0,0,1.86,1.86,0,0,0,0,1,0,0h0l.18-.26h0A3.12,3.12,0,0,1,98.87,19.47Z"/><path class="cls-1" d="M105.9,18.13h1.74v3.53H108V19a18,18,0,0,1,1.46,1.18h0l.21-.28h0A19.75,19.75,0,0,0,108,18.63v-.5h2v-.29h-4Z"/><polygon class="cls-1" points="116.59 20.14 116.58 20.12 116.29 20.2 116.45 21.09 116.45 21.11 116.74 21.06 116.59 20.14"/><path class="cls-1" d="M116.54,19.92v0l.28-.08v0a6.88,6.88,0,0,0-.3-.81v0l-.27.1v0l.05.1a1.32,1.32,0,0,0,.08.19l-.64.07a3.41,3.41,0,0,0,.75-1.31v0l-.28-.08v0a4.12,4.12,0,0,1-.3.67,3.08,3.08,0,0,0-.27-.25,8.6,8.6,0,0,0,.38-.78v0l-.26-.13v0c-.1.25-.2.49-.32.73-.14-.11-.18-.13-.21-.13h0l-.14.25h0a3.73,3.73,0,0,1,.68.55c-.15.21-.28.39-.4.53l-.27,0,.07.29.66-.06v1.92h.29V19.76l.38,0Z"/><path class="cls-1" d="M115.33,20.15a6.7,6.7,0,0,1-.3,1.2v0l.28.08h0a5.82,5.82,0,0,0,.31-1.23v0l-.29-.06Z"/><polygon class="cls-1" points="118.12 20.28 119.15 20.28 119.15 19.98 116.84 19.98 116.84 20.28 117.82 20.28 117.82 21.25 116.59 21.25 116.59 21.54 119.25 21.54 119.25 21.25 118.12 21.25 118.12 20.28"/><rect class="cls-1" x="116.7" y="17.75" width="2.49" height="0.29"/><path class="cls-1" d="M117.24,18.69l.16-.34v0l-.27-.13v0a2,2,0,0,1-.35.69c0,.05,0,.12,0,.23a2.48,2.48,0,0,1,.34.67v0l.26-.15v0a2.61,2.61,0,0,0-.37-.63s0-.05.15-.28A.09.09,0,0,1,117.24,18.69Z"/><path class="cls-1" d="M118.25,18.36v0l-.24-.13h0v0a2.19,2.19,0,0,1-.39.67q-.07.08.06.24a3.14,3.14,0,0,1,.39.65v0l.25-.17v0a3.58,3.58,0,0,0-.42-.61s0,0,0-.05A3.06,3.06,0,0,0,118.25,18.36Z"/><path class="cls-1" d="M119.05,18.34h0l-.27-.13v0a2,2,0,0,1-.32.68s0,.11.05.21a3.08,3.08,0,0,1,.37.65v0l.25-.16v0a3.88,3.88,0,0,0-.39-.6s0,0,0-.06A4.19,4.19,0,0,0,119.05,18.34Z"/><path class="cls-1" d="M125.17,19.53l.2.2h0a1,1,0,0,0,.33-.32l0,.29h0a.83.83,0,0,0,.46,0,.36.36,0,0,0,.15-.15,4.35,4.35,0,0,0,.07-1h0v0a.08.08,0,0,0,0-.05h-1v.29h.25a1,1,0,0,1-.45.75Zm.75-.76h.23a1.38,1.38,0,0,1,0,.36c0,.13,0,.22-.08.25a.79.79,0,0,1-.33,0A1.41,1.41,0,0,0,125.92,18.77Z"/><path class="cls-1" d="M127,19.78v-1l.18-.16.22-.21h0l-.2-.22h0l-.35.33c-.11-.11-.22-.22-.34-.32h0l-.19.19v0h0a4.59,4.59,0,0,1,.39.37v1Z"/><path class="cls-1" d="M125.07,18.46h0l.19-.23h0a3.1,3.1,0,0,0-.63-.48h0l-.18.24h0A4.21,4.21,0,0,1,125.07,18.46Z"/><polygon class="cls-1" points="128.35 17.86 126.99 17.86 126.99 17.63 126.7 17.63 126.7 17.86 125.38 17.86 125.38 18.15 128.35 18.15 128.35 17.86"/><path class="cls-1" d="M125,19.36l.18-.24h0a3.38,3.38,0,0,0-.66-.48h0l-.17.25h0a5.08,5.08,0,0,1,.65.46Z"/><path class="cls-1" d="M128,18.66l.32-.15h0l-.2-.23h0a2.36,2.36,0,0,1-.76.26h0a.11.11,0,0,0,0,.06v.87l-.15,0h0l0,.27v0h0a3.82,3.82,0,0,0,.75-.17h0l-.08-.28h0l-.28.09V18.8s0,0,0,0l.1,0a2.8,2.8,0,0,0,.5.95v0l.28-.12,0,0A2.66,2.66,0,0,1,128,18.66Z"/><path class="cls-1" d="M127.7,20H126V19.8h-.3v.95a.72.72,0,0,1-.27.58.91.91,0,0,1-.22.13h0l.19.22h0a1.06,1.06,0,0,0,.58-.77h1.73v.74h.3V19.8h-.3Zm-1.71.59v-.3h1.71v.3Z"/><path class="cls-1" d="M125.23,19.93l-.29-.05v0a3.59,3.59,0,0,1-.59,1.55l0,0,.28.12v0a4,4,0,0,0,.61-1.62Z"/><path class="cls-1" d="M137.42,19.08h-2.23a.07.07,0,0,0-.08.08v2.46h.29V20.47h.4v1.08h.3V20.47h.41v1.08h.28v.08h0a1.39,1.39,0,0,0,.32,0,.42.42,0,0,0,.25-.06.28.28,0,0,0,.13-.25v-2.2A.08.08,0,0,0,137.42,19.08Zm-.21.29v.8h-.4v-.79Zm-.7,0v.79h-.41v-.79Zm-.71,0v.79h-.4v-.79Zm1.41,1.88a.12.12,0,0,1-.06.1s-.1,0-.34-.05h0v-.84h.4Z"/><rect class="cls-1" x="133.69" y="17.79" width="1.08" height="0.29"/><path class="cls-1" d="M136.4,17.63h-.17a4.25,4.25,0,0,1-1.22.78h0l.17.24h0l.29-.14v.29h1.65v-.3l.33.18h0l.16-.22,0,0h0A5.41,5.41,0,0,1,136.4,17.63Zm-.93.88a3.48,3.48,0,0,0,.84-.61,3,3,0,0,0,.8.61Z"/><rect class="cls-1" x="133.72" y="18.91" width="1.03" height="0.29"/><path class="cls-1" d="M134.73,20.09h-1c-.06,0-.09,0-.09.1v1.47H134v-.38h.77a.1.1,0,0,0,.11-.11v-1A.09.09,0,0,0,134.73,20.09Zm-.19.31V21a0,0,0,0,1,0,0H134v-.58s0,0,0,0h.54S134.54,20.39,134.54,20.4Z"/><rect class="cls-1" x="133.72" y="19.52" width="1.03" height="0.29"/><rect class="cls-1" x="133.59" y="18.32" width="1.31" height="0.29"/><path class="cls-1" d="M144.66,19.39h1.52s0,0,0-.06V18.8a0,0,0,0,0,0-.05h-1.52s0,0,0,.05v.53S144.62,19.38,144.66,19.39Zm.24-.25V19h1v.15h-1Z"/><polygon class="cls-1" points="146.83 17.8 145.53 17.8 145.53 17.63 145.23 17.63 145.23 17.8 143.93 17.8 143.93 18.09 146.83 18.09 146.83 17.8"/><rect class="cls-1" x="143.98" y="21.32" width="2.88" height="0.29"/><path class="cls-1" d="M144.28,19.94a0,0,0,0,0-.05,0v1.14s0,.06.05.06h2.31a.05.05,0,0,0,.06-.06V20s0,0-.06,0Zm2.08,1h-1.84V20.7h1.84Zm0-.69v.21h-1.84v-.21Z"/><path class="cls-1" d="M144.13,20.6l-.18-.21h0a4.61,4.61,0,0,1-.39.28V19.13h.41v-.29h-.41V17.68h-.29v1.16h-.37v.29h.37v1.72l-.42.22h0l.18.23h0a6.3,6.3,0,0,0,1.11-.7Z"/><path class="cls-1" d="M146.72,19.71V18.32a.06.06,0,0,0-.06-.06h-2.48s-.05,0-.06.06v1.39a.05.05,0,0,0,.06.06h2.48A.06.06,0,0,0,146.72,19.71Zm-.29-1.17v.95h-2v-.95Z"/><path class="cls-1" d="M97.57,22.91a.72.72,0,0,1,.72.63v0h.28v0a1,1,0,0,0-1-.87,1,1,0,0,0-.74.31c-.28.27-.28.54-.28,1.18s0,.91.28,1.19a1.05,1.05,0,0,0,.74.3,1,1,0,0,0,1-.86v0H98.3v0a.73.73,0,0,1-.73.62.74.74,0,0,1-.53-.21c-.2-.2-.21-.41-.21-1s0-.83.21-1A.75.75,0,0,1,97.57,22.91Z"/><path class="cls-1" d="M99.51,23.59a.8.8,0,0,0-.56.22,1.12,1.12,0,0,0-.25.81,1.1,1.1,0,0,0,.25.8.82.82,0,0,0,1.12,0,1.11,1.11,0,0,0,.25-.8,1.13,1.13,0,0,0-.25-.81A.79.79,0,0,0,99.51,23.59Zm.55,1a.84.84,0,0,1-.17.63.56.56,0,0,1-.76,0,.91.91,0,0,1-.17-.63.89.89,0,0,1,.17-.63.49.49,0,0,1,.38-.16.53.53,0,0,1,.38.16h0A.83.83,0,0,1,100.06,24.62Z"/><path class="cls-1" d="M102.64,23.59a.78.78,0,0,0-.66.33.71.71,0,0,0-.63-.33.75.75,0,0,0-.55.21v-.18h-.26v2h.26V24.38a.49.49,0,0,1,.52-.55c.33,0,.51.19.51.55v1.24h.26V24.35a.49.49,0,0,1,.52-.52c.34,0,.51.19.51.55v1.24h.26V24.35a.73.73,0,0,0-.21-.56A.74.74,0,0,0,102.64,23.59Z"/><path class="cls-1" d="M105.78,23.59a.81.81,0,0,0-.66.33.7.7,0,0,0-.63-.33.79.79,0,0,0-.55.21v-.18h-.26v2h.26V24.38a.49.49,0,0,1,.53-.55c.33,0,.5.19.5.55v1.24h.27V24.35a.48.48,0,0,1,.52-.52c.33,0,.51.19.51.55v1.24h.26V24.35a.74.74,0,0,0-.22-.56A.72.72,0,0,0,105.78,23.59Z"/><path class="cls-1" d="M107.53,23.59a.79.79,0,0,0-.56.22,1.08,1.08,0,0,0-.25.81,1.05,1.05,0,0,0,.25.8.73.73,0,0,0,.56.22.76.76,0,0,0,.56-.22,1.11,1.11,0,0,0,.25-.8,1.13,1.13,0,0,0-.25-.81A.8.8,0,0,0,107.53,23.59Zm.55,1a.91.91,0,0,1-.17.63.54.54,0,0,1-.38.15.56.56,0,0,1-.39-.15,1.32,1.32,0,0,1,0-1.26.55.55,0,0,1,.39-.16.49.49,0,0,1,.38.16h0A.89.89,0,0,1,108.08,24.62Z"/><path class="cls-1" d="M109.36,23.59a.73.73,0,0,0-.54.21v-.18h-.27v2h.27V24.38a.49.49,0,0,1,.52-.55c.33,0,.5.19.5.55v1.24h.27V24.35a.71.71,0,0,0-.75-.76Z"/><polygon class="cls-1" points="113.25 22.69 112.96 22.69 112.37 25.1 111.73 22.71 111.73 22.69 111.45 22.69 110.81 25.1 110.23 22.71 110.22 22.69 109.94 22.69 110.66 25.6 110.67 25.62 110.93 25.62 111.59 23.2 112.24 25.6 112.25 25.62 112.51 25.62 113.24 22.72 113.25 22.69"/><path class="cls-1" d="M113.79,23.59c-.5,0-.81.38-.81,1s.31,1,.86,1a.9.9,0,0,0,.72-.31l0,0-.19-.15,0,0a.67.67,0,0,1-.52.22c-.39,0-.59-.25-.6-.71h1.35v-.12C114.6,24,114.3,23.59,113.79,23.59Zm.54.88h-1.08a1,1,0,0,1,.06-.33.52.52,0,0,1,.48-.31.51.51,0,0,1,.48.31A.78.78,0,0,1,114.33,24.47Z"/><path class="cls-1" d="M115.59,23.59a.77.77,0,0,0-.71.31l0,0,.2.17v0a.55.55,0,0,1,.52-.23c.36,0,.52.14.52.45v.19h-.6c-.45,0-.71.22-.71.59a.62.62,0,0,0,.15.4.76.76,0,0,0,.59.18.73.73,0,0,0,.57-.18v.16h.26V24.26C116.37,23.82,116.1,23.59,115.59,23.59Zm.52,1.1v.22a.44.44,0,0,1-.1.35.63.63,0,0,1-.47.14c-.33,0-.48-.1-.48-.35s.16-.36.47-.36Z"/><path class="cls-1" d="M116.94,25.08V22.69h-.27v2.4a.47.47,0,0,0,.5.53h.21v-.24h-.17C117,25.38,116.94,25.3,116.94,25.08Z"/><path class="cls-1" d="M117.75,23h-.26v.62h-.27v.21h.27v1.25a.48.48,0,0,0,.5.54h.2v-.24H118c-.18,0-.27-.1-.27-.29V23.83h.44v-.21h-.44Z"/><path class="cls-1" d="M119.16,23.59a.73.73,0,0,0-.54.21V22.69h-.26v2.93h.26V24.38a.49.49,0,0,1,.52-.55c.33,0,.51.19.51.55v1.24h.26V24.35A.7.7,0,0,0,119.16,23.59Z"/><polygon class="cls-1" points="121.68 25.62 123.48 25.62 123.48 25.37 121.95 25.37 121.95 24.27 123.25 24.27 123.25 24.02 121.95 24.02 121.95 22.94 123.48 22.94 123.48 22.69 121.68 22.69 121.68 25.62"/><path class="cls-1" d="M124.41,23.83a.57.57,0,0,1,.48.24l0,0,.18-.17,0,0a.78.78,0,0,0-.66-.31c-.54,0-.88.39-.88,1s.34,1,.88,1a.78.78,0,0,0,.66-.31l0,0-.18-.16,0,0a.58.58,0,0,1-.48.23.56.56,0,0,1-.49-.24.85.85,0,0,1-.13-.54.81.81,0,0,1,.13-.54A.57.57,0,0,1,124.41,23.83Z"/><path class="cls-1" d="M125.93,23.59a.79.79,0,0,0-.56.22,1.13,1.13,0,0,0-.25.81,1.11,1.11,0,0,0,.25.8.82.82,0,0,0,1.12,0,1.11,1.11,0,0,0,.25-.8,1.13,1.13,0,0,0-.25-.81A.79.79,0,0,0,125.93,23.59Zm.55,1a.87.87,0,0,1-.17.63.56.56,0,0,1-.76,0,.87.87,0,0,1-.17-.63.84.84,0,0,1,.17-.63.53.53,0,0,1,.76,0h0A.84.84,0,0,1,126.48,24.62Z"/><path class="cls-1" d="M127.76,23.59a.75.75,0,0,0-.54.21v-.18H127v2h.26V24.38a.49.49,0,0,1,.52-.55c.33,0,.51.19.51.55v1.24h.26V24.35a.71.71,0,0,0-.75-.76Z"/><path class="cls-1" d="M129.51,23.59a.8.8,0,0,0-.56.22,1.13,1.13,0,0,0-.25.81,1.11,1.11,0,0,0,.25.8.75.75,0,0,0,.56.22.73.73,0,0,0,.56-.22,1.07,1.07,0,0,0,.25-.8,1.09,1.09,0,0,0-.25-.81A.79.79,0,0,0,129.51,23.59Zm0,1.81a.54.54,0,0,1-.38-.15.89.89,0,0,1-.17-.63.87.87,0,0,1,.17-.63.49.49,0,0,1,.38-.16.55.55,0,0,1,.39.16h0a1.32,1.32,0,0,1,0,1.26A.56.56,0,0,1,129.51,25.4Z"/><path class="cls-1" d="M132.64,23.59a.78.78,0,0,0-.66.33.71.71,0,0,0-.63-.33.82.82,0,0,0-.55.21v-.18h-.26v2h.26V24.38a.49.49,0,0,1,.52-.55c.33,0,.51.19.51.55v1.24h.26V24.35a.49.49,0,0,1,.52-.52c.33,0,.51.19.51.55v1.24h.26V24.35a.73.73,0,0,0-.21-.56A.74.74,0,0,0,132.64,23.59Z"/><rect class="cls-1" x="133.66" y="22.69" width="0.31" height="0.31"/><rect class="cls-1" x="133.68" y="23.62" width="0.26" height="2"/><path class="cls-1" d="M135,23.83a.56.56,0,0,1,.48.24l0,0,.19-.17,0,0a.79.79,0,0,0-.67-.31c-.54,0-.88.39-.88,1s.34,1,.88,1a.79.79,0,0,0,.67-.31l0,0-.19-.16,0,0a.58.58,0,0,1-.48.23.56.56,0,0,1-.49-.24.92.92,0,0,1-.13-.54.9.9,0,0,1,.13-.54A.57.57,0,0,1,135,23.83Z"/><polygon class="cls-1" points="137.45 22.94 138.97 22.94 138.97 22.69 137.17 22.69 137.17 25.62 137.45 25.62 137.45 24.31 138.75 24.31 138.75 24.06 137.45 24.06 137.45 22.94"/><path class="cls-1" d="M139.74,23.59a.8.8,0,0,0-.56.22,1.12,1.12,0,0,0-.25.81,1.1,1.1,0,0,0,.25.8.84.84,0,0,0,1.13,0,1.11,1.11,0,0,0,.25-.8,1.13,1.13,0,0,0-.25-.81A.81.81,0,0,0,139.74,23.59Zm.55,1a.9.9,0,0,1-.16.63.54.54,0,0,1-.39.15.54.54,0,0,1-.38-.15.91.91,0,0,1-.16-.63.88.88,0,0,1,.16-.63.55.55,0,0,1,.38-.16.51.51,0,0,1,.39.16A.88.88,0,0,1,140.29,24.62Z"/><path class="cls-1" d="M141.57,23.59a.75.75,0,0,0-.54.23v-.2h-.26v2H141V24.39a.51.51,0,0,1,.5-.56.39.39,0,0,1,.34.15l0,0,.19-.19,0,0A.61.61,0,0,0,141.57,23.59Z"/><path class="cls-1" d="M143.45,24.85a.49.49,0,0,1-.52.55c-.34,0-.51-.19-.51-.55V23.62h-.26v1.27a.75.75,0,0,0,.21.56.72.72,0,0,0,.53.19.77.77,0,0,0,.55-.21v.19h.26v-2h-.26Z"/><path class="cls-1" d="M146.67,23.79a.74.74,0,0,0-.53-.2.76.76,0,0,0-.66.33.71.71,0,0,0-.63-.33.75.75,0,0,0-.55.21v-.18H144v2h.26V24.38a.49.49,0,0,1,.52-.55c.33,0,.51.19.51.55v1.24h.26V24.35a.49.49,0,0,1,.52-.52c.34,0,.51.19.51.55v1.24h.26V24.35A.73.73,0,0,0,146.67,23.79Z"/><path class="cls-1" d="M128.87,16.19c-4.82,0-8.75-3.64-8.75-8.11S124.05,0,128.87,0s8.74,3.64,8.74,8.11S133.69,16.19,128.87,16.19Zm0-16.08c-4.74,0-8.6,3.58-8.6,8s3.86,8,8.6,8,8.59-3.58,8.59-8S133.61.11,128.87.11Z"/><path class="cls-1" d="M128.87,16.2c-3.26,0-5.9-3.64-5.9-8.12S125.61,0,128.87,0s5.9,3.64,5.9,8.12S132.12,16.2,128.87,16.2Zm0-16.08c-3.17,0-5.75,3.57-5.75,8s2.58,8,5.75,8,5.74-3.57,5.74-8S132,.12,128.87.12Z"/><rect class="cls-1" x="128.79" y="0.04" width="0.15" height="16.08"/><rect class="cls-1" x="121" y="4.61" width="15.71" height="0.16"/><rect class="cls-1" x="120.88" y="11.19" width="15.96" height="0.16"/><rect class="cls-1" x="120.19" y="8.01" width="17.29" height="0.15"/><path class="cls-2" d="M134.32,1.77v3h-.23c-.06-.2-.16-.45-.29-.76a4.1,4.1,0,0,0-.59-.9,3.45,3.45,0,0,0-1-.76A3,3,0,0,0,130.79,2h-3.21V8h1a2.7,2.7,0,0,0,1.09-.19,1.91,1.91,0,0,0,.75-.52,2.86,2.86,0,0,0,.48-.82,6,6,0,0,0,.32-1.08h.23v5.44h-.23a9.34,9.34,0,0,0-.29-1,3,3,0,0,0-.44-.83,2,2,0,0,0-.7-.57,2.2,2.2,0,0,0-1-.21h-1.17V14h2.87a3.75,3.75,0,0,0,1.45-.28,3.64,3.64,0,0,0,1.14-.75,4.39,4.39,0,0,0,.83-1.15,6.57,6.57,0,0,0,.51-1.41h.23v3.83H123.27V14h1.78V2h-1.61V1.77Z"/><polygon class="cls-1" points="119.98 1.9 120.83 1.9 117.91 11.69 117.87 11.69 115.42 1.89 116.22 1.89 116.22 1.65 112.46 1.64 112.46 1.88 113.14 1.88 114.83 8.05 113.28 12.07 113.24 12.07 110.74 1.88 111.48 1.88 111.48 1.64 107.78 1.63 107.78 1.87 108.48 1.87 111.88 14.49 112.63 14.49 114.94 8.47 116.59 14.5 117.34 14.5 121.13 1.9 121.9 1.9 121.9 1.65 119.98 1.66 119.98 1.9"/><path class="cls-1" d="M106.5,11.9a4.52,4.52,0,0,1-.82,1.18,3.72,3.72,0,0,1-1.13.83,3.15,3.15,0,0,1-1.42.32,4.69,4.69,0,0,1-1.68-.28,2.44,2.44,0,0,1-1.16-1,5.34,5.34,0,0,1-.65-1.89,17.69,17.69,0,0,1-.21-3c0-.92,0-1.77.1-2.54a6.25,6.25,0,0,1,.48-2,2.91,2.91,0,0,1,1.11-1.31,3.64,3.64,0,0,1,2-.48A3.18,3.18,0,0,1,105.78,3a4.91,4.91,0,0,1,.7,1.17c.18.42.33.83.46,1.21h.23V1.79h-.28a.43.43,0,0,1-.18.3.7.7,0,0,1-.36.07,1.89,1.89,0,0,1-.56-.11L105,1.83l-.89-.22a4.83,4.83,0,0,0-1-.1,6.14,6.14,0,0,0-2.28.46,7,7,0,0,0-2.1,1.32,6.94,6.94,0,0,0-1.55,2.06A6,6,0,0,0,96.58,8a6,6,0,0,0,.54,2.54,6.57,6.57,0,0,0,1.44,2A6.68,6.68,0,0,0,100.65,14a6.33,6.33,0,0,0,3.53.41l.93-.21.76-.21a1.89,1.89,0,0,1,.55-.1.69.69,0,0,1,.36.08.62.62,0,0,1,.21.29h.28V10.52H107A5.68,5.68,0,0,1,106.5,11.9Z"/><path class="cls-1" d="M136.53,1.77V2h1.61V14h-1.61v.24h5.76V14h-1.62V8.18h1.17a2.37,2.37,0,0,1,1,.21,2.11,2.11,0,0,1,.69.57,2.86,2.86,0,0,1,.44.83,7.92,7.92,0,0,1,.29,1h.23V5.34h-.23A6.13,6.13,0,0,1,144,6.41a2.75,2.75,0,0,1-.49.82,2.09,2.09,0,0,1-.74.53,2.93,2.93,0,0,1-1.09.18h-1V2h2.64a3.42,3.42,0,0,1,1.21.19,2.76,2.76,0,0,1,.9.55,3.88,3.88,0,0,1,.67.86,8.65,8.65,0,0,1,.53,1.14h.23v-3Z"/><path class="cls-1" d="M172.69,23.88l-.53-6.74-.54,6.74a2.16,2.16,0,0,1-2,2l-6.74.53,6.74.53a2.16,2.16,0,0,1,2,2l.54,6.74.53-6.74a2.17,2.17,0,0,1,2-2l6.74-.53-6.74-.53A2.17,2.17,0,0,1,172.69,23.88Z"/><path class="cls-1" d="M20.31,35.2c0-.44.19-.65.57-.65H22c.43,0,.64.2.64.61v.37c0,.34.16.51.49.51H25.4a.55.55,0,0,1,.63.62v.84c0,.42-.14.63-.43.63s-.51.21-.63.62l-.46,2c-.09.32,0,.49.35.49h.88c.43,0,.64.2.64.61v.86c0,.43-.2.64-.62.64H23.1c-.34,0-.51,0-.51.45s.16.46.49.46h2.38c.42,0,.63.2.63.61v.88c0,.43-.2.64-.61.64H23.65c-.42,0-.47.14-.14.41q.94.63,1.89,1.35a.76.76,0,0,1,.06,1.13l-.45.64c-.32.42-.68.42-1.09,0l-.74-.76c-.4-.37-.59-.39-.59,0v3.77a.56.56,0,0,1-.62.64H21a.56.56,0,0,1-.64-.62V49.52c0-.36-.18-.32-.53.12a13.73,13.73,0,0,1-1.79,1.8c-.38.26-.71.18-1-.26l-.37-.66A.69.69,0,0,1,17,49.46a12.63,12.63,0,0,0,2.5-2.57c.23-.35.18-.53-.14-.53H17.66a.55.55,0,0,1-.63-.62v-.88c0-.42.2-.63.61-.63h2.24c.34,0,.51-.08.51-.42s-.16-.49-.49-.49H17.32c-.43,0-.64-.2-.64-.62v-.86a.55.55,0,0,1,.62-.63h.86c.32,0,.48-.63.45-1s-.14-1-.25-1.54a.59.59,0,0,0-.65-.5.53.53,0,0,1-.6-.61v-.84a.56.56,0,0,1,.62-.64H19.8c.34,0,.51-.16.51-.49Zm2.48,3.47q.15-.54-.33-.54H20.84c-.33,0-.45.21-.39.62l.31,2a.67.67,0,0,0,.74.49c.42,0,.71-.63.86-1Zm4.92-2.94a31.38,31.38,0,0,0,5.52-1.12.74.74,0,0,1,1,.41l.43.75c.28.51.2.83-.24,1a26.52,26.52,0,0,1-4.47,1,.55.55,0,0,0-.49.6v.07c0,.34.16.51.49.51h4.84a.55.55,0,0,1,.63.62v.88c0,.42-.2.81-.61.81h-.51c-.35,0-.52.16-.52.49V52.86c0,.42-.2.64-.61.64H32.08a.55.55,0,0,1-.63-.62V41.7a.45.45,0,0,0-.5-.51H29.89c-.34,0-.52.21-.54.62a36.69,36.69,0,0,1-.88,8.69,11.38,11.38,0,0,1-1.11,2.32c-.34.45-.74.48-1.21.08l-.41-.33c-.5-.41-.6-.83-.3-1.27a10.51,10.51,0,0,0,1.21-3.12c.26-1.64.41-5.52.45-7.7v-4A.66.66,0,0,1,27.71,35.73Z"/><path class="cls-1" d="M39.47,35.19c0-.42.2-.64.59-.64h1.07a.55.55,0,0,1,.63.62v3.21a.45.45,0,0,0,.5.51h.59a.56.56,0,0,1,.64.62v1a.56.56,0,0,1-.62.64h-.59c-.34,0-.52.16-.52.49v4.88c0,.33.21.44.62.33l.62-.2c.5-.17.8,0,.88.41l.12.67a.81.81,0,0,1-.47,1.07A33.76,33.76,0,0,1,39,50.36a.64.64,0,0,1-.85-.45c-.13-.35-.25-.69-.34-1-.18-.52-.06-.83.37-.92l.65-.17c.44-.12.66-.34.66-.67V41.7a.44.44,0,0,0-.49-.51h-.6c-.42,0-.63-.2-.63-.61v-1c0-.42.2-.64.61-.64H39c.34,0,.51-.16.51-.49Zm5,7.05a.56.56,0,0,1,.62-.64h10a.56.56,0,0,1,.64.62v5.86c0,.43-.2.64-.61.64H52.86c-.34,0-.51.16-.51.49a3.07,3.07,0,0,0,.16,1.58c.22.24.34.24.82.26.78,0,1.09-.16,1.15-.77s.31-.61.76-.41l1,.47a.86.86,0,0,1,.52.94l-.17.62c-.22.61-.36.94-1,1.14a10.81,10.81,0,0,1-3.6.17,4.74,4.74,0,0,1-1-.14c-.63-.16-.66-.42-.87-1a9.59,9.59,0,0,1-.19-2.85q0-.51-.45-.51c-.3,0-.53.2-.68.61a5.45,5.45,0,0,1-2.32,2.83,7.59,7.59,0,0,1-2.72,1.09.74.74,0,0,1-1-.51,7.45,7.45,0,0,1-.3-.82c-.18-.51-.06-.8.37-.89a5.13,5.13,0,0,0,3.38-1.8q.28-.51-.21-.51h-1a.55.55,0,0,1-.62-.62Zm4.51-7c0-.46.2-.7.6-.7h1.13q.63,0,.63.66c0,.45.17.59.49.59h3.49c.42,0,.64.2.64.61v.78a.56.56,0,0,1-.62.64h-.43c-.33,0-.58.2-.76.61s-.06.62.27.62h1.27c.42,0,.64.2.64.61v.8a.56.56,0,0,1-.62.64H44.53a.55.55,0,0,1-.63-.62v-.8c0-.42.2-.63.61-.63H46c.33,0,.45-.21.37-.62s-.33-.61-.66-.61H45a.55.55,0,0,1-.63-.62v-.78c0-.42.2-.63.61-.63h3.55C48.83,35.8,49,35.68,49,35.25ZM53.35,44q0-.33-.45-.33H47.38q-.51,0-.51.27c0,.2.17.31.49.31h5.48C53.18,44.23,53.35,44.14,53.35,44Zm0,2.44q0-.33-.51-.33H47.38c-.34,0-.51.1-.51.29s.17.33.49.33h5.48C53.17,46.71,53.34,46.61,53.37,46.42Zm-1.7-8q.21-.63-.27-.63H49.13c-.33,0-.45.2-.37.61s.37.62.7.62h1.45A.84.84,0,0,0,51.67,38.46Z"/><path class="cls-1" d="M74.13,35.2c0-.44.2-.65.58-.65h1.13c.42,0,.63.2.63.61v.37A.44.44,0,0,0,77,36h2.26a.56.56,0,0,1,.64.62v.84c0,.42-.15.63-.44.63s-.51.21-.63.62l-.45,2c-.1.32,0,.49.35.49h.88c.42,0,.63.2.63.61v.86c0,.43-.2.64-.61.64H76.92c-.34,0-.51,0-.51.45s.16.46.49.46h2.38c.42,0,.64.2.64.61v.88a.56.56,0,0,1-.62.64H77.48c-.43,0-.48.14-.15.41q.94.63,1.89,1.35c.36.3.38.68.06,1.13l-.45.64c-.31.42-.68.42-1.09,0L77,49.13c-.39-.37-.59-.39-.59,0v3.77a.56.56,0,0,1-.62.64h-.94a.55.55,0,0,1-.63-.62V49.52q0-.54-.54.12a13.48,13.48,0,0,1-1.78,1.8c-.38.26-.71.18-1-.26l-.37-.66a.71.71,0,0,1,.25-1.06,12.37,12.37,0,0,0,2.5-2.57c.24-.35.19-.53-.14-.53H71.49a.56.56,0,0,1-.64-.62v-.88a.55.55,0,0,1,.62-.63H73.7c.34,0,.52-.08.52-.42s-.17-.49-.5-.49H71.14a.56.56,0,0,1-.64-.62v-.86a.55.55,0,0,1,.62-.63H72c.33,0,.48-.63.45-1s-.14-1-.24-1.54a.6.6,0,0,0-.66-.5.53.53,0,0,1-.6-.61v-.84a.56.56,0,0,1,.62-.64h2.07c.34,0,.51-.16.51-.49Zm2.49,3.47q.13-.54-.33-.54H74.67c-.33,0-.46.21-.39.62l.3,2a.67.67,0,0,0,.74.49c.43,0,.71-.63.86-1Zm4.92-2.94a31.44,31.44,0,0,0,5.51-1.12A.75.75,0,0,1,88,35l.43.75c.27.51.19.83-.25,1a26.09,26.09,0,0,1-4.47,1,.55.55,0,0,0-.49.6v.07c0,.34.16.51.49.51h4.84a.56.56,0,0,1,.64.62v.88c0,.42-.21.81-.62.81h-.51c-.34,0-.51.16-.51.49V52.86a.56.56,0,0,1-.62.64h-1a.56.56,0,0,1-.64-.62V41.7c0-.34-.16-.51-.49-.51H83.71c-.34,0-.52.21-.53.62a37.22,37.22,0,0,1-.88,8.69,11.38,11.38,0,0,1-1.11,2.32A.73.73,0,0,1,80,52.9l-.41-.33c-.51-.41-.61-.83-.31-1.27a10.25,10.25,0,0,0,1.21-3.12c.26-1.64.41-5.52.45-7.7v-4A.66.66,0,0,1,81.54,35.73Z"/><path class="cls-1" d="M92.29,42.6A.54.54,0,0,1,92.9,42h6.61c.42,0,.63.2.63.61v4.5a.57.57,0,0,1-.65.63c-.46,0-.68.17-.68.49v1q0,.51.63.24l.39-.16a.53.53,0,0,1,.82.35l.29,1.09a19.2,19.2,0,0,1-3.59,1.86.63.63,0,0,1-.92-.39l-.35-.82c-.18-.41-.16-.65.06-.74a.57.57,0,0,0,.41-.61V48.25c0-.35-.09-.52-.28-.52s-.33.21-.37.62a6.72,6.72,0,0,1-.7,3.07,7,7,0,0,1-1.74,1.93c-.39.28-.78.19-1.19-.24l-.35-.41c-.41-.44-.43-.78,0-1a4.48,4.48,0,0,0,1.35-1.56,5.21,5.21,0,0,0,.37-1.89c0-.32-.21-.49-.64-.49s-.67-.2-.67-.61Zm6.95-4.18c-.06.31.14.46.59.46s.7.2.7.58v1.15a.53.53,0,0,1-.61.6H92.25c-.43,0-.64-.19-.64-.58V39.48a.54.54,0,0,1,.62-.6h.51c.33,0,.47-.19.43-.57a.5.5,0,0,0-.53-.48c-.29,0-.44-.19-.44-.57v-.79c0-.39.21-.59.62-.59h1.8c.35,0,.52-.16.52-.46v-.25c0-.41.19-.62.57-.62h1.17c.42,0,.64.2.64.58v.27a.43.43,0,0,0,.49.48h1.68c.42,0,.64.19.64.57v.79c0,.4-.15.59-.43.59A.62.62,0,0,0,99.24,38.42Zm-1.4,6.27c0-.43-.15-.65-.45-.65H95.06c-.35,0-.52.2-.52.59s.17,1.07.49,1.07h2.3C97.67,45.7,97.84,45.08,97.84,44.69Zm-.75-6.56c.08-.44,0-.66-.37-.66h-1c-.33,0-.46.2-.41.58a1.21,1.21,0,0,0,.06.38c.09.31.35.46.8.46a.76.76,0,0,0,.84-.57Zm4.2,4.47a.54.54,0,0,1,.62-.61h7.46c.42,0,.64.2.64.61V47a.56.56,0,0,1-.62.64h-.94c-.34,0-.52.16-.52.49v2.67c0,.36.07.49.35.53.11,0,.28-.07.29-.67a3.45,3.45,0,0,1,0-.64c0-.41.23-.53.64-.35l.8.39a.9.9,0,0,1,.57.92,4.42,4.42,0,0,1-.49,2.07c-.3.48-1.26.53-2.54.44a2.44,2.44,0,0,1-.83-.19,1.66,1.66,0,0,1-1.08-1.7V48.16c0-.34-.1-.51-.29-.51s-.33.21-.37.62a6.32,6.32,0,0,1-.86,3.07,6.11,6.11,0,0,1-2,1.89A.93.93,0,0,1,100.9,53l-.59-.65c-.33-.36-.26-.65.2-.89a4.86,4.86,0,0,0,1.58-1.33,4.36,4.36,0,0,0,.61-2,.43.43,0,0,0-.49-.49h-.28c-.43,0-.64-.2-.64-.61Zm7.63-4.18c-.06.31.08.46.41.46h.59c.43,0,.64.2.64.58v1.15a.54.54,0,0,1-.62.6h-8.32c-.43,0-.64-.19-.64-.58V39.48a.54.54,0,0,1,.62-.6h.28c.33,0,.47-.19.41-.57s-.59-.48-.59-.48c-.31,0-.47-.19-.47-.57v-.79a.53.53,0,0,1,.61-.59H104c.34,0,.51-.16.51-.46v-.25c0-.41.19-.62.57-.62h1.17c.43,0,.64.2.64.58v.27a.43.43,0,0,0,.49.48h2.07c.43,0,.64.19.64.57v.79c0,.4-.15.59-.45.59A.65.65,0,0,0,108.92,38.42Zm-1.23,6.23c0-.41-.15-.61-.45-.61H104.1q-.51,0-.51.57c0,.4.16,1,.49,1h3.1C107.52,45.64,107.69,45,107.69,44.65Zm-.92-6.58c.09-.46,0-.69-.35-.69H105c-.33,0-.47.2-.43.61a1.45,1.45,0,0,0,.06.41.55.55,0,0,0,.6.49h.9q.51,0,.63-.63Z"/><path class="cls-1" d="M125.55,35.24q3.46-.23,6.36-.61a.86.86,0,0,1,.94.51l.41.82c.21.42.1.67-.31.74-.62.07-1.26.16-1.9.27a.52.52,0,0,0-.49.57v1.33c0,.34.16.52.49.52h2c.42,0,.63.2.63.61v1c0,.42-.2.63-.61.63h-2.05c-.34,0-.51.43-.51.74a1.45,1.45,0,0,0,.61,1,23.84,23.84,0,0,1,1.8,1.66.87.87,0,0,1,.19,1.23,5.68,5.68,0,0,0-.43.61c-.36.49-.7.51-1,.06l-.69-.86c-.3-.3-.45-.28-.45,0v6.63a.55.55,0,0,1-.62.63h-1.13c-.42,0-.63-.2-.63-.61V47.55c0-.45-.13-.45-.39,0s-.64.93-1,1.39a.71.71,0,0,1-1.15.11,4.83,4.83,0,0,1-.41-.39.77.77,0,0,1-.12-1.19,15.45,15.45,0,0,0,2.75-5.07c.07-.33-.06-.76-.39-.76h-2c-.43,0-.64-.2-.64-.61V40a.55.55,0,0,1,.62-.63h2.23c.35,0,.52-.17.52-.5V37.81c0-.33-.21-.49-.62-.47l-1,.08a.85.85,0,0,1-1-.58l-.35-.9C125.05,35.5,125.17,35.27,125.55,35.24Zm14.19,0c0-.44.19-.65.58-.65h1.17c.42,0,.63.2.63.61v9.68c0,.33.21.46.62.41l.22,0a.53.53,0,0,1,.7.51l.12,1c.06.43-.11.68-.51.74a2.28,2.28,0,0,0-.57.1c-.39,0-.58.22-.58.51v4.66c0,.42-.2.63-.61.63h-1.13c-.43,0-.64-.2-.64-.61V48.63c0-.32-.2-.46-.61-.41l-5.13.86a.57.57,0,0,1-.76-.49,9,9,0,0,1-.18-1,.55.55,0,0,1,.51-.74l5.68-1a.54.54,0,0,0,.49-.59Zm-4.69,6.3a.9.9,0,0,1,1.23-.21,16.79,16.79,0,0,1,1.8,1.48.81.81,0,0,1,.1,1.23l-.65.82q-.5.61-1,.12a19.68,19.68,0,0,0-1.92-1.78c-.46-.34-.5-.7-.15-1.07Zm1.08-4.84a.86.86,0,0,1,1.21-.19,9.83,9.83,0,0,1,1.42,1.19c.44.44.5.84.2,1.21s-.44.55-.63.82a.67.67,0,0,1-1.13.07,13.73,13.73,0,0,0-1.58-1.46c-.41-.32-.4-.69,0-1.13Z"/><path class="cls-1" d="M148.54,35.2c0-.44.19-.65.57-.65h1.17c.43,0,.64.2.64.61v1.42c0,.34.16.51.49.51h1.11a.55.55,0,0,1,.63.62v1c0,.43-.2.64-.61.64h-1.11c-.34,0-.51.16-.51.49l0,2.55c0,.32.35.39.76.27l.45-.18c.42-.16.86-.33.94.08V43.8a.93.93,0,0,1-.6.9c-.38.15-.63.28-1,.47a.72.72,0,0,0-.51.7v5a3.23,3.23,0,0,1-.62,2,3.91,3.91,0,0,1-3.17.49.87.87,0,0,1-.72-.76,10.47,10.47,0,0,1-.19-1.12c-.08-.47.11-.63.58-.5l.76.13c.61.16,1.06-.08,1.08-.72l0-.16V46.59c0-.33-.32-.43-.73-.31a3.38,3.38,0,0,0-.62.18c-.49.17-.81,0-1-.41L146,45a.59.59,0,0,1,.43-.89l1.74-.28a.68.68,0,0,0,.49-.68l0-3.21a.53.53,0,0,0-.59-.53h-1.42a.55.55,0,0,1-.63-.62v-1c0-.43.2-.64.61-.64H148c.34,0,.51-.16.51-.49Zm9.21,0c0-.44.19-.65.57-.65h1.17c.43,0,.64.2.64.61v1.42c0,.34.16.51.49.51h3.44c.43,0,.64.2.64.61v1c0,.42-.2.64-.61.64h-3.45c-.34,0-.51.16-.51.49v1.64c0,.34.16.51.49.51h2.73a.55.55,0,0,1,.63.62,2.83,2.83,0,0,1-.16,1.51,16.63,16.63,0,0,1-2.46,4.45c-.3.35-.26.67.14,1A12.45,12.45,0,0,0,164.15,51a.54.54,0,0,1,.3.86l-.53,1.07c-.23.45-.53.61-.9.47a14,14,0,0,1-3.41-2.07.78.78,0,0,0-1.1,0,15.21,15.21,0,0,1-3.86,2,.83.83,0,0,1-1.11-.39l-.49-.92c-.23-.44-.09-.73.41-.86A14.54,14.54,0,0,0,157,49.41c.32-.23.3-.56,0-1a18.38,18.38,0,0,1-2-3.73.7.7,0,0,0-.68-.49c-.32,0-.49-.21-.49-.62v-.92a.56.56,0,0,1,.62-.64h2.75c.34,0,.51-.16.51-.49V39.9a.44.44,0,0,0-.49-.51h-2.93a.56.56,0,0,1-.64-.62V37.72a.55.55,0,0,1,.62-.63h2.93a.44.44,0,0,0,.51-.49Zm3.32,9.54c.15-.36.07-.53-.25-.53h-3.09c-.34,0-.42.21-.23.63A9.09,9.09,0,0,0,158.81,47c.28.35.59.31.93-.1A11.68,11.68,0,0,0,161.07,44.74Z"/><path class="cls-1" d="M63.8,49.81a1.86,1.86,0,1,0,1.86,1.86A1.86,1.86,0,0,0,63.8,49.81Z"/><path class="cls-1" d="M118,49.81a1.86,1.86,0,1,0,1.86,1.86A1.85,1.85,0,0,0,118,49.81Z"/></svg>